<mxfile host="app.diagrams.net" modified="2023-08-29T21:41:53.565Z" agent="Mozilla/5.0 (Windows NT 10.0; Win64; x64) AppleWebKit/537.36 (KHTML, like Gecko) Chrome/116.0.0.0 Safari/537.36" etag="LfiJy9HQnq04eFdUv0pG" version="21.6.9" type="github">
  <diagram name="Page-1" id="e7e014a7-5840-1c2e-5031-d8a46d1fe8dd">
    <mxGraphModel dx="1593" dy="833" grid="1" gridSize="10" guides="1" tooltips="1" connect="1" arrows="1" fold="1" page="1" pageScale="1" pageWidth="827" pageHeight="583" background="none" math="0" shadow="0">
      <root>
        <mxCell id="0" />
        <mxCell id="1" parent="0" />
        <mxCell id="2" value="CrossEasy PERMIT APPLICATION" style="swimlane;whiteSpace=wrap" parent="1" vertex="1">
          <mxGeometry x="20" y="30" width="482.39" height="790" as="geometry" />
        </mxCell>
        <mxCell id="cjwB_ALamql36mhWsSI0-41" value="" style="shape=image;verticalLabelPosition=bottom;labelBackgroundColor=#ffffff;verticalAlign=top;aspect=fixed;imageAspect=0;image=data:image/svg+xml,PHN2ZyB4bWxuczpjYz0iaHR0cDovL2NyZWF0aXZlY29tbW9ucy5vcmcvbnMjIiB4bWxuczpkYz0iaHR0cDovL3B1cmwub3JnL2RjL2VsZW1lbnRzLzEuMS8iIHhtbG5zOmlua3NjYXBlPSJodHRwOi8vd3d3Lmlua3NjYXBlLm9yZy9uYW1lc3BhY2VzL2lua3NjYXBlIiB4bWxuczpyZGY9Imh0dHA6Ly93d3cudzMub3JnLzE5OTkvMDIvMjItcmRmLXN5bnRheC1ucyMiIHhtbG5zOnNvZGlwb2RpPSJodHRwOi8vc29kaXBvZGkuc291cmNlZm9yZ2UubmV0L0RURC9zb2RpcG9kaS0wLmR0ZCIgeG1sbnM6c3ZnPSJodHRwOi8vd3d3LnczLm9yZy8yMDAwL3N2ZyIgeG1sbnM9Imh0dHA6Ly93d3cudzMub3JnLzIwMDAvc3ZnIiB4bWxuczp4bGluaz0iaHR0cDovL3d3dy53My5vcmcvMTk5OS94bGluayIgdmVyc2lvbj0iMS4xIiBpZD0ic3ZnMjY1MzgiIGlua3NjYXBlOnZlcnNpb249IjAuOTIuMyAoMjQwNTU0NiwgMjAxOC0wMy0xMSkiIHNvZGlwb2RpOmRvY25hbWU9IndvcmtzcGFjZV8zLnN2ZyIgeD0iMHB4IiB5PSIwcHgiIHZpZXdCb3g9IjAgMCAxNDAuNDQgMTA3LjkyIiBzdHlsZT0iZW5hYmxlLWJhY2tncm91bmQ6bmV3IDAgMCAxNDAuNDQgMTA3LjkyOyIgeG1sOnNwYWNlPSJwcmVzZXJ2ZSI+JiN4YTs8c29kaXBvZGk6bmFtZWR2aWV3IGJvcmRlcmNvbG9yPSIjNjY2NjY2IiBib3JkZXJvcGFjaXR5PSIxIiBmaXQtbWFyZ2luLWJvdHRvbT0iMCIgZml0LW1hcmdpbi1sZWZ0PSIwIiBmaXQtbWFyZ2luLXJpZ2h0PSIwIiBmaXQtbWFyZ2luLXRvcD0iMCIgZ3JpZHRvbGVyYW5jZT0iMTAiIGd1aWRldG9sZXJhbmNlPSIxMCIgaWQ9Im5hbWVkdmlldzI2NTQwIiBpbmtzY2FwZTpjdXJyZW50LWxheWVyPSJzdmcyNjUzOCIgaW5rc2NhcGU6Y3g9IjkzLjYyODMyMSIgaW5rc2NhcGU6Y3k9IjcxLjk0OTczNSIgaW5rc2NhcGU6cGFnZW9wYWNpdHk9IjAiIGlua3NjYXBlOnBhZ2VzaGFkb3c9IjIiIGlua3NjYXBlOndpbmRvdy1oZWlnaHQ9IjEwMTciIGlua3NjYXBlOndpbmRvdy1tYXhpbWl6ZWQ9IjEiIGlua3NjYXBlOndpbmRvdy13aWR0aD0iMTkyMCIgaW5rc2NhcGU6d2luZG93LXg9Ii04IiBpbmtzY2FwZTp3aW5kb3cteT0iLTgiIGlua3NjYXBlOnpvb209IjYuMDI1NTczNyIgb2JqZWN0dG9sZXJhbmNlPSIxMCIgcGFnZWNvbG9yPSIjZmZmZmZmIiBzaG93Z3JpZD0iZmFsc2UiPiYjeGE7CTwvc29kaXBvZGk6bmFtZWR2aWV3PiYjeGE7PGcgaWQ9ImcyNjUzNiIgdHJhbnNmb3JtPSJ0cmFuc2xhdGUoMCwtMC4wMDQ4MjAwMSkiPiYjeGE7CTx0aXRsZSBpZD0idGl0bGUyNjQwMSI+UGFnZS0xPC90aXRsZT4mI3hhOwk8ZyBpZD0iZ3JvdXA5MjI3LTEiPiYjeGE7CQk8dGl0bGUgaWQ9InRpdGxlMjY0MDMiPldvcmtzcGFjZSAjMzwvdGl0bGU+JiN4YTsJCTxnIGlkPSJzaGFwZTkyMjgtMiIgdHJhbnNmb3JtPSJ0cmFuc2xhdGUoMCwtMjQuMTM1NCkiPiYjeGE7CQkJPHRpdGxlIGlkPSJ0aXRsZTI2NDA1Ij5TaGVldC45MjI4PC90aXRsZT4mI3hhOwkJCTxwYXRoIGlkPSJwYXRoMjY0MDciIGlua3NjYXBlOmNvbm5lY3Rvci1jdXJ2YXR1cmU9IjAiIHN0eWxlPSJmaWxsOiMzRjU3NjU7IiBkPSJNMTQwLjQ0LDEwMy40NWMwLDIuNjYtMi4yNiw0LjQ3LTQuNDksNC40NyAgICAgYy0xMzEuNDksMC0xMzEuNDksMC0xMzEuNDksMGMtMi42NSwwLTQuNDYtMS44MS00LjQ2LTQuNDdjMC03NC44OCwwLTc0Ljg4LDAtNzQuODhjMC0yLjY5LDEuODEtNC40Myw0LjQ2LTQuNDMgICAgIGMxMzEuNDksMCwxMzEuNDksMCwxMzEuNDksMGMyLjIzLDAsNC40OSwxLjc0LDQuNDksNC40M0wxNDAuNDQsMTAzLjQ1eiIvPiYjeGE7CQk8L2c+JiN4YTsJCTxnIGlkPSJzaGFwZTkyMjktNCIgdHJhbnNmb3JtPSJ0cmFuc2xhdGUoMy41NTU1MSwtMzEuMjgwMykiPiYjeGE7CQkJPHRpdGxlIGlkPSJ0aXRsZTI2NDEwIj5TaGVldC45MjI5PC90aXRsZT4mI3hhOwkJCTxwYXRoIGlkPSJwYXRoMjY0MTIiIGlua3NjYXBlOmNvbm5lY3Rvci1jdXJ2YXR1cmU9IjAiIHN0eWxlPSJmaWxsOiNGOUIxMEI7IiBkPSJNMTMyLjQsMTA2LjE3YzAsMC44NC0wLjkxLDEuNzUtMS43NSwxLjc1ICAgICBjLTEyOC4zOSwwLTEyOC4zOSwwLTEyOC4zOSwwYy0xLjM2LDAtMi4yNi0wLjkxLTIuMjYtMS43NWMwLTY5LjE2LDAtNjkuMTYsMC02OS4xNmMwLTEuMywwLjktMi4xNywyLjI2LTIuMTcgICAgIGMxMjguMzksMCwxMjguMzksMCwxMjguMzksMGMwLjg0LDAsMS43NSwwLjg3LDEuNzUsMi4xN1YxMDYuMTd6Ii8+JiN4YTsJCTwvZz4mI3hhOwkJPGcgaWQ9InNoYXBlOTIzMC02IiB0cmFuc2Zvcm09InRyYW5zbGF0ZSgxNC4xOTE5LC03Mi43MzMyKSI+JiN4YTsJCQk8dGl0bGUgaWQ9InRpdGxlMjY0MTUiPlNoZWV0LjkyMzA8L3RpdGxlPiYjeGE7CQkJPHBhdGggaWQ9InBhdGgyNjQxNyIgaW5rc2NhcGU6Y29ubmVjdG9yLWN1cnZhdHVyZT0iMCIgc3R5bGU9ImZpbGw6I0YwRUQxRDsiIGQ9Ik0wLDkzLjJMMCw5My4yaDMwLjd2MTQuNzJIMFY5My4yeiIvPiYjeGE7CQk8L2c+JiN4YTsJCTxnIGlkPSJzaGFwZTkyMzEtOCIgdHJhbnNmb3JtPSJ0cmFuc2xhdGUoNDYuMTkxNSwtNzIuNzMzMikiPiYjeGE7CQkJPHRpdGxlIGlkPSJ0aXRsZTI2NDIwIj5TaGVldC45MjMxPC90aXRsZT4mI3hhOwkJCTxwYXRoIGlkPSJwYXRoMjY0MjIiIGlua3NjYXBlOmNvbm5lY3Rvci1jdXJ2YXR1cmU9IjAiIHN0eWxlPSJmaWxsOiM1NzNGQTA7IiBkPSJNMCw5My4yTDAsOTMuMmgzMC42NHYxNC43MkgwVjkzLjJ6Ii8+JiN4YTsJCTwvZz4mI3hhOwkJPGcgaWQ9InNoYXBlOTIzMi0xMCIgdHJhbnNmb3JtPSJ0cmFuc2xhdGUoNzcuNzk5NCwtNzIuNzMzMikiPiYjeGE7CQkJPHRpdGxlIGlkPSJ0aXRsZTI2NDI1Ij5TaGVldC45MjMyPC90aXRsZT4mI3hhOwkJCTxwYXRoIGlkPSJwYXRoMjY0MjciIGlua3NjYXBlOmNvbm5lY3Rvci1jdXJ2YXR1cmU9IjAiIHN0eWxlPSJmaWxsOiM0QjZEQkQ7IiBkPSJNMCw5My4yTDAsOTMuMmgxNC42MXYxNC43MkgwVjkzLjJ6Ii8+JiN4YTsJCTwvZz4mI3hhOwkJPGcgaWQ9InNoYXBlOTIzMy0xMiIgdHJhbnNmb3JtPSJ0cmFuc2xhdGUoOTMuMzE3MSwtNzIuNzMzMikiPiYjeGE7CQkJPHRpdGxlIGlkPSJ0aXRsZTI2NDMwIj5TaGVldC45MjMzPC90aXRsZT4mI3hhOwkJCTxwYXRoIGlkPSJwYXRoMjY0MzIiIGlua3NjYXBlOmNvbm5lY3Rvci1jdXJ2YXR1cmU9IjAiIHN0eWxlPSJmaWxsOiMyOThDM0U7IiBkPSJNMCw5My4yTDAsOTMuMmgxNC42N3YxNC43MkgwVjkzLjJ6Ii8+JiN4YTsJCTwvZz4mI3hhOwkJPGcgaWQ9InNoYXBlOTIzNC0xNCIgdHJhbnNmb3JtPSJ0cmFuc2xhdGUoNzcuNzk5NCwtNTcuMTE2OCkiPiYjeGE7CQkJPHRpdGxlIGlkPSJ0aXRsZTI2NDM1Ij5TaGVldC45MjM0PC90aXRsZT4mI3hhOwkJCTxwYXRoIGlkPSJwYXRoMjY0MzciIGlua3NjYXBlOmNvbm5lY3Rvci1jdXJ2YXR1cmU9IjAiIHN0eWxlPSJmaWxsOiM5MzI0OTU7IiBkPSJNMCw5My4yTDAsOTMuMmgxNC42MXYxNC43MkgwVjkzLjJ6Ii8+JiN4YTsJCTwvZz4mI3hhOwkJPGcgaWQ9InNoYXBlOTIzNS0xNiIgdHJhbnNmb3JtPSJ0cmFuc2xhdGUoMTQuMTkxOSwtNTcuMTE2OCkiPiYjeGE7CQkJPHRpdGxlIGlkPSJ0aXRsZTI2NDQwIj5TaGVldC45MjM1PC90aXRsZT4mI3hhOwkJCTxwYXRoIGlkPSJwYXRoMjY0NDIiIGlua3NjYXBlOmNvbm5lY3Rvci1jdXJ2YXR1cmU9IjAiIHN0eWxlPSJmaWxsOiM0RTg0MzA7IiBkPSJNMCw5My4yTDAsOTMuMmgxNS4xM3YxNC43MkgwVjkzLjJ6Ii8+JiN4YTsJCTwvZz4mI3hhOwkJPGcgaWQ9InNoYXBlOTIzNi0xOCIgdHJhbnNmb3JtPSJ0cmFuc2xhdGUoMTQuMTkxOSwtNDEuMDc4MykiPiYjeGE7CQkJPHRpdGxlIGlkPSJ0aXRsZTI2NDQ1Ij5TaGVldC45MjM2PC90aXRsZT4mI3hhOwkJCTxwYXRoIGlkPSJwYXRoMjY0NDciIGlua3NjYXBlOmNvbm5lY3Rvci1jdXJ2YXR1cmU9IjAiIHN0eWxlPSJmaWxsOiM2MTkzRDQ7IiBkPSJNMCw5My4yTDAsOTMuMmgxNS4xM3YxNC43MkgwVjkzLjJ6Ii8+JiN4YTsJCTwvZz4mI3hhOwkJPGcgaWQ9InNoYXBlOTIzNy0yMCIgdHJhbnNmb3JtPSJ0cmFuc2xhdGUoMzAuMjIxOCwtNDEuMDc4MykiPiYjeGE7CQkJPHRpdGxlIGlkPSJ0aXRsZTI2NDUwIj5TaGVldC45MjM3PC90aXRsZT4mI3hhOwkJCTxwYXRoIGlkPSJwYXRoMjY0NTIiIGlua3NjYXBlOmNvbm5lY3Rvci1jdXJ2YXR1cmU9IjAiIHN0eWxlPSJmaWxsOiM5MzI0OTU7IiBkPSJNMCw5My4yTDAsOTMuMmgxNC42N3YxNC43MkgwVjkzLjJ6Ii8+JiN4YTsJCTwvZz4mI3hhOwkJPGcgaWQ9InNoYXBlOTIzOC0yMiIgdHJhbnNmb3JtPSJ0cmFuc2xhdGUoNDYuMTkxNSwtNTcuMTE2OCkiPiYjeGE7CQkJPHRpdGxlIGlkPSJ0aXRsZTI2NDU1Ij5TaGVldC45MjM4PC90aXRsZT4mI3hhOwkJCTxwYXRoIGlkPSJwYXRoMjY0NTciIGlua3NjYXBlOmNvbm5lY3Rvci1jdXJ2YXR1cmU9IjAiIHN0eWxlPSJmaWxsOiM1MDUyNTc7IiBkPSJNMCw5My4yTDAsOTMuMmgzMC42NHYxNC43MkgwVjkzLjJ6Ii8+JiN4YTsJCTwvZz4mI3hhOwkJPGcgaWQ9InNoYXBlOTIzOS0yNCIgdHJhbnNmb3JtPSJ0cmFuc2xhdGUoNDYuMTkxNSwtNDEuMDc4MykiPiYjeGE7CQkJPHRpdGxlIGlkPSJ0aXRsZTI2NDYwIj5TaGVldC45MjM5PC90aXRsZT4mI3hhOwkJCTxwYXRoIGlkPSJwYXRoMjY0NjIiIGlua3NjYXBlOmNvbm5lY3Rvci1jdXJ2YXR1cmU9IjAiIHN0eWxlPSJmaWxsOiNGQUY5RkE7IiBkPSJNMCw5My4yTDAsOTMuMmgzMC42NHYxNC43MkgwVjkzLjJ6Ii8+JiN4YTsJCTwvZz4mI3hhOwkJPGcgaWQ9InNoYXBlOTI0MC0yNiIgdHJhbnNmb3JtPSJ0cmFuc2xhdGUoNzcuMjg3MiwtNDEuMDc4MykiPiYjeGE7CQkJPHRpdGxlIGlkPSJ0aXRsZTI2NDY1Ij5TaGVldC45MjQwPC90aXRsZT4mI3hhOwkJCTxwYXRoIGlkPSJwYXRoMjY0NjciIGlua3NjYXBlOmNvbm5lY3Rvci1jdXJ2YXR1cmU9IjAiIHN0eWxlPSJmaWxsOiNCQzE4NDk7IiBkPSJNMCwxMDNMMCwxMDNoMzAuN3Y0LjkySDBWMTAzeiIvPiYjeGE7CQk8L2c+JiN4YTsJCTxnIGlkPSJzaGFwZTkyNDEtMjgiIHRyYW5zZm9ybT0idHJhbnNsYXRlKDc3LjI4NzIsLTQ1Ljk5MjMpIj4mI3hhOwkJCTx0aXRsZSBpZD0idGl0bGUyNjQ3MCI+U2hlZXQuOTI0MTwvdGl0bGU+JiN4YTsJCQk8cGF0aCBpZD0icGF0aDI2NDcyIiBpbmtzY2FwZTpjb25uZWN0b3ItY3VydmF0dXJlPSIwIiBzdHlsZT0iZmlsbDojNTA1MjU3OyIgZD0iTTAsOTguMTJMMCw5OC4xMmgzMC43djkuOEgwVjk4LjEyeiIvPiYjeGE7CQk8L2c+JiN4YTsJCTxnIGlkPSJzaGFwZTkyNDItMzAiIHRyYW5zZm9ybT0idHJhbnNsYXRlKDkzLjMxNzEsLTU3LjExNjgpIj4mI3hhOwkJCTx0aXRsZSBpZD0idGl0bGUyNjQ3NSI+U2hlZXQuOTI0MjwvdGl0bGU+JiN4YTsJCQk8cGF0aCBpZD0icGF0aDI2NDc3IiBpbmtzY2FwZTpjb25uZWN0b3ItY3VydmF0dXJlPSIwIiBzdHlsZT0iZmlsbDojM0I1N0FFOyIgZD0iTTAsOTMuMkwwLDkzLjJoMTQuNjd2MTQuNzJIMFY5My4yeiIvPiYjeGE7CQk8L2c+JiN4YTsJCTxnIGlkPSJzaGFwZTkyNDMtMzIiIHRyYW5zZm9ybT0idHJhbnNsYXRlKDExNS4wNzIsLTU3LjExNjgpIj4mI3hhOwkJCTx0aXRsZSBpZD0idGl0bGUyNjQ4MCI+U2hlZXQuOTI0MzwvdGl0bGU+JiN4YTsJCQk8cGF0aCBpZD0icGF0aDI2NDgyIiBpbmtzY2FwZTpjb25uZWN0b3ItY3VydmF0dXJlPSIwIiBzdHlsZT0iZmlsbDojMkU5RjQxOyIgZD0iTTAsOTMuMkwwLDkzLjJoMTUuMTN2MTQuNzJIMFY5My4yeiIvPiYjeGE7CQk8L2c+JiN4YTsJCTxnIGlkPSJzaGFwZTkyNDQtMzQiIHRyYW5zZm9ybT0idHJhbnNsYXRlKDExNS4wNzIsLTQxLjA3ODMpIj4mI3hhOwkJCTx0aXRsZSBpZD0idGl0bGUyNjQ4NSI+U2hlZXQuOTI0NDwvdGl0bGU+JiN4YTsJCQk8cGF0aCBpZD0icGF0aDI2NDg3IiBpbmtzY2FwZTpjb25uZWN0b3ItY3VydmF0dXJlPSIwIiBzdHlsZT0iZmlsbDojREI0NTI2OyIgZD0iTTAsOTIuNzVMMCw5Mi43NWgxNS4xM3YxNS4xN0gwVjkyLjc1eiIvPiYjeGE7CQk8L2c+JiN4YTsJCTxnIGlkPSJzaGFwZTkyNDUtMzYiIHRyYW5zZm9ybT0idHJhbnNsYXRlKDExNS4wNzIsLTcyLjczMzIpIj4mI3hhOwkJCTx0aXRsZSBpZD0idGl0bGUyNjQ5MCI+U2hlZXQuOTI0NTwvdGl0bGU+JiN4YTsJCQk8cGF0aCBpZD0icGF0aDI2NDkyIiBpbmtzY2FwZTpjb25uZWN0b3ItY3VydmF0dXJlPSIwIiBzdHlsZT0iZmlsbDojOUIxNjYyOyIgZD0iTTAsOTMuMkwwLDkzLjJoMjAuODh2MTQuNzJIMFY5My4yeiIvPiYjeGE7CQk8L2c+JiN4YTsJCTxnIGlkPSJzaGFwZTkyNDYtMzgiIHRyYW5zZm9ybT0idHJhbnNsYXRlKDMwLjIyMTgsLTU3LjExNjgpIj4mI3hhOwkJCTx0aXRsZSBpZD0idGl0bGUyNjQ5NSI+U2hlZXQuOTI0NjwvdGl0bGU+JiN4YTsJCQk8cGF0aCBpZD0icGF0aDI2NDk3IiBpbmtzY2FwZTpjb25uZWN0b3ItY3VydmF0dXJlPSIwIiBzdHlsZT0iZmlsbDojREI0NTI2OyIgZD0iTTcuNTMsOTMuMkw3LjUzLDkzLjJIMHYxNC43MmgxNS4xM1Y5My4ySDcuNTN6Ii8+JiN4YTsJCTwvZz4mI3hhOwkJPGcgaWQ9InNoYXBlOTI0Ny00MCIgdHJhbnNmb3JtPSJ0cmFuc2xhdGUoNjcuMTAyNywtMi4yNzg0KSI+JiN4YTsJCQk8dGl0bGUgaWQ9InRpdGxlMjY1MDAiPlNoZWV0LjkyNDc8L3RpdGxlPiYjeGE7CQkJPHBhdGggaWQ9InBhdGgyNjUwMiIgaW5rc2NhcGU6Y29ubmVjdG9yLWN1cnZhdHVyZT0iMCIgc3R5bGU9ImZpbGw6IzNGNTc2NTsiIGQ9Ik0wLDg1LjIxTDAsODUuMjFoNS43NnYyMi43MUgwVjg1LjIxeiIvPiYjeGE7CQk8L2c+JiN4YTsJCTxnIGlkPSJzaGFwZTkyNDgtNDIiIHRyYW5zZm9ybT0idHJhbnNsYXRlKDE0LjE2MTgsLTk1LjAxMjIpIj4mI3hhOwkJCTx0aXRsZSBpZD0idGl0bGUyNjUwNSI+U2hlZXQuOTI0ODwvdGl0bGU+JiN4YTsJCQk8cGF0aCBpZD0icGF0aDI2NTA3IiBpbmtzY2FwZTpjb25uZWN0b3ItY3VydmF0dXJlPSIwIiBzdHlsZT0iZmlsbDojRkVGRUZFOyIgZD0iTTIuMjYsMTA2LjA4Yy0wLjE1LTAuMjEtMC40Mi0wLjQzLTAuODEtMC42MSAgICAgYy0wLjIxLTAuMTItMC40LTAuMjEtMC40Ni0wLjI3Yy0wLjA5LTAuMDktMC4xNS0wLjE1LTAuMjEtMC4yNGMtMC4wMy0wLjA2LTAuMDMtMC4xNS0wLjAzLTAuMjRjMC0wLjE1LDAuMDMtMC4zLDAuMTUtMC40MiAgICAgYzAuMTUtMC4wOSwwLjMxLTAuMTUsMC40OS0wLjE1YzAuMjEsMCwwLjM2LDAuMDYsMC41MSwwLjEyYzAuMTUsMC4wMywwLjMsMC4wOSwwLjM5LDAuMTh2LTAuN2MtMC4wMy0wLjA2LTAuMTgtMC4wOS0wLjMzLTAuMDkgICAgIGMtMC4yMS0wLjA2LTAuMzYtMC4xMi0wLjU3LTAuMTJjLTAuMjUsMC0wLjQ5LDAuMDYtMC43NiwwLjE1Yy0wLjE4LDAuMTMtMC4zMywwLjI4LTAuNDgsMC40NkMwLjAzLDEwNC4zLDAsMTA0LjUxLDAsMTA0Ljc1ICAgICBjMCwwLjI3LDAuMDMsMC40NSwwLjI0LDAuNjZjMC4xNSwwLjIxLDAuMzYsMC40LDAuNjksMC41NWMwLjMxLDAuMTUsMC41MiwwLjMsMC42MSwwLjQ1YzAuMTUsMC4xMiwwLjIxLDAuMjcsMC4yMSwwLjQyICAgICBzLTAuMDYsMC4yNC0wLjIxLDAuMzNjLTAuMDksMC4xMi0wLjI0LDAuMTUtMC40NiwwLjE1Yy0wLjE4LDAtMC4zOS0wLjAzLTAuNi0wLjE1Yy0wLjE4LTAuMDMtMC4zMy0wLjE1LTAuNDgtMC4yNHYwLjc1ICAgICBjMC4wOSwwLjA2LDAuMjQsMC4wOSwwLjQ1LDAuMTVjMC4xOCwwLjA3LDAuMzksMC4xLDAuNTQsMC4xYzAuNDYsMCwwLjg1LTAuMSwxLjEyLTAuMzRjMC4yNC0wLjIxLDAuMzktMC41MSwwLjM5LTAuODcgICAgIEMyLjUsMTA2LjQ3LDIuNDEsMTA2LjI2LDIuMjYsMTA2LjA4eiIvPiYjeGE7CQk8L2c+JiN4YTsJCTxnIGlkPSJzaGFwZTkyNDktNDQiIHRyYW5zZm9ybT0idHJhbnNsYXRlKDE2LjgxMzMsLTk1LjAxMjIpIj4mI3hhOwkJCTx0aXRsZSBpZD0idGl0bGUyNjUxMCI+U2hlZXQuOTI0OTwvdGl0bGU+JiN4YTsJCQk8cGF0aCBpZD0icGF0aDI2NTEyIiBpbmtzY2FwZTpjb25uZWN0b3ItY3VydmF0dXJlPSIwIiBzdHlsZT0iZmlsbDojRkVGRUZFOyIgZD0iTTEuODcsMTA3LjI4Yy0wLjA2LDAtMC4xMiwwLjAzLTAuMTUsMC4wMyAgICAgYy0wLjA2LDAuMDYtMC4xMiwwLjA2LTAuMTUsMC4wNmMtMC4xNSwwLTAuMjctMC4wNi0wLjMtMC4xNWMtMC4wNi0wLjA2LTAuMTMtMC4yMS0wLjEzLTAuMzl2LTEuNDJoMC43M3YtMC41NEgxLjE0di0wLjkgICAgIGwtMC42OSwwLjE4djAuNzJIMHYwLjU0aDAuNDV2MS41N2MwLDAuNiwwLjMsMC45NCwwLjkxLDAuOTRjMC4wOSwwLDAuMjEtMC4wMywwLjMtMC4wM3MwLjE1LTAuMDcsMC4yMS0wLjA3TDEuODcsMTA3LjI4eiIvPiYjeGE7CQk8L2c+JiN4YTsJCTxnIGlkPSJzaGFwZTkyNTAtNDYiIHRyYW5zZm9ybT0idHJhbnNsYXRlKDE5LjA3MzIsLTk1LjAxMjIpIj4mI3hhOwkJCTx0aXRsZSBpZD0idGl0bGUyNjUxNSI+U2hlZXQuOTI1MDwvdGl0bGU+JiN4YTsJCQk8cGF0aCBpZD0icGF0aDI2NTE3IiBpbmtzY2FwZTpjb25uZWN0b3ItY3VydmF0dXJlPSIwIiBzdHlsZT0iZmlsbDojRkVGRUZFOyIgZD0iTTIuNSwxMDcuODJ2LTEuODZjMC0wLjQtMC4wOS0wLjctMC4zLTAuOTEgICAgIGMtMC4xOC0wLjE4LTAuNDgtMC4zLTAuODQtMC4zYy0wLjIyLDAtMC4zNywwLjA2LTAuNjEsMC4xMmMtMC4yMSwwLjAzLTAuMzYsMC4wOS0wLjQ1LDAuMTh2MC41N2MwLjA5LTAuMTIsMC4yNC0wLjE1LDAuNDUtMC4yMSAgICAgYzAuMTUtMC4wOSwwLjM2LTAuMDksMC41Mi0wLjA5YzAuMzksMCwwLjYsMC4xOCwwLjYsMC42MWwtMC45MSwwLjA5Yy0wLjMsMC4wNi0wLjU3LDAuMTUtMC43MiwwLjM2ICAgICBDMC4wNiwxMDYuNTMsMCwxMDYuNzEsMCwxMDcuMDFjMCwwLjI3LDAuMDYsMC41MSwwLjI0LDAuNjZjMC4xNSwwLjE1LDAuNDIsMC4yNSwwLjcyLDAuMjVjMC4zNCwwLDAuNjQtMC4xOSwwLjg1LTAuNDloMC4wNnYwLjM5ICAgICBIMi41eiBNMC43NSwxMDYuNjJjMC4wOS0wLjA2LDAuMjQtMC4wOSwwLjQ2LTAuMTVsMC42Ni0wLjA5djAuM2MwLDAuMTgtMC4xMiwwLjMzLTAuMjEsMC40OGMtMC4xNSwwLjE1LTAuMywwLjIxLTAuNTIsMC4yMSAgICAgYy0wLjE1LDAtMC4yNC0wLjA2LTAuMzMtMC4wOWMtMC4xMi0wLjEyLTAuMTUtMC4yMS0wLjE1LTAuM0MwLjY2LDEwNi44MywwLjY5LDEwNi42OCwwLjc1LDEwNi42MnoiLz4mI3hhOwkJPC9nPiYjeGE7CQk8ZyBpZD0ic2hhcGU5MjUxLTQ4IiB0cmFuc2Zvcm09InRyYW5zbGF0ZSgyMi4zODc3LC05NS4xMDI3KSI+JiN4YTsJCQk8dGl0bGUgaWQ9InRpdGxlMjY1MjAiPlNoZWV0LjkyNTE8L3RpdGxlPiYjeGE7CQkJPHBhdGggaWQ9InBhdGgyNjUyMiIgaW5rc2NhcGU6Y29ubmVjdG9yLWN1cnZhdHVyZT0iMCIgc3R5bGU9ImZpbGw6I0ZFRkVGRTsiIGQ9Ik0xLjcyLDEwNC45Yy0wLjA2LDAtMC4xNSwwLTAuMywwICAgICBzLTAuMzEsMC4wNi0wLjQ2LDAuMTVjLTAuMTIsMC4wOS0wLjIxLDAuMjQtMC4zLDAuNDV2LTAuNTRIMHYyLjk2aDAuNjZ2LTEuNTFjMC0wLjMsMC4wMy0wLjUxLDAuMTgtMC42NyAgICAgYzAuMTItMC4xOCwwLjI3LTAuMjQsMC40Ni0wLjI0YzAuMDYsMCwwLjE1LDAsMC4yMSwwYzAuMDksMC4wNiwwLjE1LDAuMDYsMC4yMSwwLjA5TDEuNzIsMTA0Ljl6Ii8+JiN4YTsJCTwvZz4mI3hhOwkJPGcgaWQ9InNoYXBlOTI1Mi01MCIgdHJhbnNmb3JtPSJ0cmFuc2xhdGUoMjQuNDk2OSwtOTUuMDEyMikiPiYjeGE7CQkJPHRpdGxlIGlkPSJ0aXRsZTI2NTI1Ij5TaGVldC45MjUyPC90aXRsZT4mI3hhOwkJCTxwYXRoIGlkPSJwYXRoMjY1MjciIGlua3NjYXBlOmNvbm5lY3Rvci1jdXJ2YXR1cmU9IjAiIHN0eWxlPSJmaWxsOiNGRUZFRkU7IiBkPSJNMS45LDEwNy4yOGMtMC4wMywwLTAuMDksMC4wMy0wLjE1LDAuMDMgICAgIGMtMC4wMywwLjA2LTAuMDksMC4wNi0wLjE1LDAuMDZjLTAuMTUsMC0wLjI0LTAuMDYtMC4zLTAuMTVjLTAuMDktMC4wNi0wLjA5LTAuMjEtMC4wOS0wLjM5di0xLjQySDEuOXYtMC41NEgxLjIxdi0wLjkgICAgIGwtMC43LDAuMTh2MC43MkgwdjAuNTRoMC41MXYxLjU3YzAsMC42LDAuMywwLjk0LDAuOTEsMC45NGMwLjA5LDAsMC4xOC0wLjAzLDAuMy0wLjAzYzAuMDksMCwwLjE1LTAuMDcsMC4xOC0wLjA3TDEuOSwxMDcuMjh6Ii8+JiN4YTsJCTwvZz4mI3hhOwkJPGcgaWQ9InNoYXBlOTI1My01MiIgdHJhbnNmb3JtPSJ0cmFuc2xhdGUoMzUuMDkyNikiPiYjeGE7CQkJPHRpdGxlIGlkPSJ0aXRsZTI2NTMwIj5TaGVldC45MjUzPC90aXRsZT4mI3hhOwkJCTxwYXRoIGlkPSJwYXRoMjY1MzIiIGlua3NjYXBlOmNvbm5lY3Rvci1jdXJ2YXR1cmU9IjAiIHN0eWxlPSJmaWxsOiMzRjU3NjU7IiBkPSJNMCwxMDUuNDZMMCwxMDUuNDZoNjkuNzl2Mi40NkgwVjEwNS40NnoiLz4mI3hhOwkJPC9nPiYjeGE7CTwvZz4mI3hhOzwvZz4mI3hhOzwvc3ZnPg==;" vertex="1" parent="2">
          <mxGeometry x="20" y="54.5" width="256" height="197.49" as="geometry" />
        </mxCell>
        <mxCell id="cjwB_ALamql36mhWsSI0-42" value="" style="shape=image;verticalLabelPosition=bottom;labelBackgroundColor=#ffffff;verticalAlign=top;aspect=fixed;imageAspect=0;image=data:image/svg+xml,PHN2ZyB4bWxuczpjYz0iaHR0cDovL2NyZWF0aXZlY29tbW9ucy5vcmcvbnMjIiB4bWxuczpkYz0iaHR0cDovL3B1cmwub3JnL2RjL2VsZW1lbnRzLzEuMS8iIHhtbG5zOmlua3NjYXBlPSJodHRwOi8vd3d3Lmlua3NjYXBlLm9yZy9uYW1lc3BhY2VzL2lua3NjYXBlIiB4bWxuczpyZGY9Imh0dHA6Ly93d3cudzMub3JnLzE5OTkvMDIvMjItcmRmLXN5bnRheC1ucyMiIHhtbG5zOnNvZGlwb2RpPSJodHRwOi8vc29kaXBvZGkuc291cmNlZm9yZ2UubmV0L0RURC9zb2RpcG9kaS0wLmR0ZCIgeG1sbnM6c3ZnPSJodHRwOi8vd3d3LnczLm9yZy8yMDAwL3N2ZyIgeG1sbnM9Imh0dHA6Ly93d3cudzMub3JnLzIwMDAvc3ZnIiB4bWxuczp4bGluaz0iaHR0cDovL3d3dy53My5vcmcvMTk5OS94bGluayIgdmVyc2lvbj0iMS4xIiBpZD0ic3ZnNDE2OSIgaW5rc2NhcGU6dmVyc2lvbj0iMC45Mi4zICgyNDA1NTQ2LCAyMDE4LTAzLTExKSIgc29kaXBvZGk6ZG9jbmFtZT0iZGV2aWNlX2lwaG9uZS5zdmciIHg9IjBweCIgeT0iMHB4IiB2aWV3Qm94PSIwIDAgMjguODEgNTguMTIiIHN0eWxlPSJlbmFibGUtYmFja2dyb3VuZDpuZXcgMCAwIDI4LjgxIDU4LjEyOyIgeG1sOnNwYWNlPSJwcmVzZXJ2ZSI+JiN4YTs8c29kaXBvZGk6bmFtZWR2aWV3IGJvcmRlcmNvbG9yPSIjNjY2NjY2IiBib3JkZXJvcGFjaXR5PSIxIiBmaXQtbWFyZ2luLWJvdHRvbT0iMCIgZml0LW1hcmdpbi1sZWZ0PSIwIiBmaXQtbWFyZ2luLXJpZ2h0PSIwIiBmaXQtbWFyZ2luLXRvcD0iMCIgZ3JpZHRvbGVyYW5jZT0iMTAiIGd1aWRldG9sZXJhbmNlPSIxMCIgaWQ9Im5hbWVkdmlldzQxNzEiIGlua3NjYXBlOmN1cnJlbnQtbGF5ZXI9InN2ZzQxNjkiIGlua3NjYXBlOmN4PSIxOS4yMDg4NTYiIGlua3NjYXBlOmN5PSIzOC43NDg4NDQiIGlua3NjYXBlOnBhZ2VvcGFjaXR5PSIwIiBpbmtzY2FwZTpwYWdlc2hhZG93PSIyIiBpbmtzY2FwZTp3aW5kb3ctaGVpZ2h0PSIxMDE3IiBpbmtzY2FwZTp3aW5kb3ctbWF4aW1pemVkPSIxIiBpbmtzY2FwZTp3aW5kb3ctd2lkdGg9IjE5MjAiIGlua3NjYXBlOndpbmRvdy14PSItOCIgaW5rc2NhcGU6d2luZG93LXk9Ii04IiBpbmtzY2FwZTp6b29tPSIxMS4xODg3IiBvYmplY3R0b2xlcmFuY2U9IjEwIiBwYWdlY29sb3I9IiNmZmZmZmYiIHNob3dncmlkPSJmYWxzZSI+JiN4YTsJPC9zb2RpcG9kaTpuYW1lZHZpZXc+JiN4YTs8ZyBpZD0iZzQxNjciIHRyYW5zZm9ybT0idHJhbnNsYXRlKC0xLjczNjE4NDllLTUpIj4mI3hhOwk8dGl0bGUgaWQ9InRpdGxlNDEyMiI+UGFnZS0xPC90aXRsZT4mI3hhOwk8ZyBpZD0iZ3JvdXAzNDU4LTEiPiYjeGE7CQk8dGl0bGUgaWQ9InRpdGxlNDEyNCI+RGV2aWNlOiBpUGhvbmU8L3RpdGxlPiYjeGE7CQk8ZyBpZD0ic2hhcGUzNDU5LTIiPiYjeGE7CQkJPHRpdGxlIGlkPSJ0aXRsZTQxMjYiPlNoZWV0LjM0NTk8L3RpdGxlPiYjeGE7CQkJPHBhdGggaWQ9InBhdGg0MTI4IiBpbmtzY2FwZTpjb25uZWN0b3ItY3VydmF0dXJlPSIwIiBzdHlsZT0iZmlsbDojM0Y1NzY1OyIgZD0iTTI4LjgxLDUzLjhjMCwyLjQyLTEuOSw0LjMyLTQuMzQsNC4zMiAgICAgYy0yMC4wNywwLTIwLjA3LDAtMjAuMDcsMGMtMi40MywwLTQuNC0xLjktNC40LTQuMzJDMCw0LjM3LDAsNC4zNywwLDQuMzdDMCwxLjk1LDEuOTcsMCw0LjQsMGMyMC4wNywwLDIwLjA3LDAsMjAuMDcsMCAgICAgYzIuNDQsMCw0LjM0LDEuOTUsNC4zNCw0LjM3VjUzLjh6Ii8+JiN4YTsJCTwvZz4mI3hhOwkJPGcgaWQ9InNoYXBlMzQ2MC00IiB0cmFuc2Zvcm09InRyYW5zbGF0ZSgxMi42MDU4LC01NC40MDIpIj4mI3hhOwkJCTx0aXRsZSBpZD0idGl0bGU0MTMxIj5TaGVldC4zNDYwPC90aXRsZT4mI3hhOwkJCTxwYXRoIGlkPSJwYXRoNDEzMyIgaW5rc2NhcGU6Y29ubmVjdG9yLWN1cnZhdHVyZT0iMCIgc3R5bGU9ImZpbGw6IzhFOUZCMDsiIGQ9Ik0zLjg0LDU3Ljg2YzAsMC4xNy0wLjA5LDAuMjYtMC4yNCwwLjI2ICAgICBjLTMuMzEsMC0zLjMxLDAtMy4zMSwwQzAuMTUsNTguMTIsMCw1OC4wMywwLDU3Ljg2bDAsMGMwLTAuMTMsMC4xNS0wLjIyLDAuMjktMC4yMmMzLjMxLDAsMy4zMSwwLDMuMzEsMCAgICAgQzMuNzUsNTcuNjQsMy44NCw1Ny43MywzLjg0LDU3Ljg2eiIvPiYjeGE7CQk8L2c+JiN4YTsJCTxnIGlkPSJzaGFwZTM0NjEtNiIgdHJhbnNmb3JtPSJ0cmFuc2xhdGUoMTIuNjA1OCwtMS43OTc0MikiPiYjeGE7CQkJPHRpdGxlIGlkPSJ0aXRsZTQxMzYiPlNoZWV0LjM0NjE8L3RpdGxlPiYjeGE7CQkJPHBhdGggaWQ9InBhdGg0MTM4IiBpbmtzY2FwZTpjb25uZWN0b3ItY3VydmF0dXJlPSIwIiBzdHlsZT0iZmlsbDojOEU5RkIwOyIgZD0iTTAsNTYuMjZjMC0xLjAyLDAuODYtMS44NiwxLjkyLTEuODYgICAgIGMxLjA3LDAsMS45MiwwLjg0LDEuOTIsMS44NmMwLDEuMDMtMC44NSwxLjg2LTEuOTIsMS44NkMwLjg2LDU4LjEyLDAsNTcuMjksMCw1Ni4yNnoiLz4mI3hhOwkJPC9nPiYjeGE7CQk8ZyBpZD0ic2hhcGUzNDYyLTgiIHRyYW5zZm9ybT0idHJhbnNsYXRlKDEwLjA4NDcsLTU0LjE2MjMpIj4mI3hhOwkJCTx0aXRsZSBpZD0idGl0bGU0MTQxIj5TaGVldC4zNDYyPC90aXRsZT4mI3hhOwkJCTxwYXRoIGlkPSJwYXRoNDE0MyIgaW5rc2NhcGU6Y29ubmVjdG9yLWN1cnZhdHVyZT0iMCIgc3R5bGU9ImZpbGw6IzhFOUZCMDsiIGQ9Ik0wLDU3LjY0YzAtMC4yNiwwLjIyLTAuNDgsMC40OC0wLjQ4ICAgICBjMC4yNywwLDAuNDgsMC4yMiwwLjQ4LDAuNDhjMCwwLjI3LTAuMjEsMC40OC0wLjQ4LDAuNDhDMC4yMiw1OC4xMiwwLDU3LjkxLDAsNTcuNjR6Ii8+JiN4YTsJCTwvZz4mI3hhOwkJPGcgaWQ9InNoYXBlMzQ2My0xMCIgdHJhbnNmb3JtPSJ0cmFuc2xhdGUoMTQuMjg2NiwtNTYuMzE5MykiPiYjeGE7CQkJPHRpdGxlIGlkPSJ0aXRsZTQxNDYiPlNoZWV0LjM0NjM8L3RpdGxlPiYjeGE7CQkJPHBhdGggaWQ9InBhdGg0MTQ4IiBpbmtzY2FwZTpjb25uZWN0b3ItY3VydmF0dXJlPSIwIiBzdHlsZT0iZmlsbDojOEU5RkIwOyIgZD0iTTAsNTcuODhjMC0wLjEzLDAuMTQtMC4yNCwwLjMtMC4yNCAgICAgYzAuMTcsMCwwLjMsMC4xMSwwLjMsMC4yNHMtMC4xMywwLjI0LTAuMywwLjI0QzAuMTQsNTguMTIsMCw1OC4wMSwwLDU3Ljg4eiIvPiYjeGE7CQk8L2c+JiN4YTsJCTxnIGlkPSJzaGFwZTM0NjQtMTIiIHRyYW5zZm9ybT0idHJhbnNsYXRlKDEuNjgwNzgsLTYuMzUwODkpIj4mI3hhOwkJCTx0aXRsZSBpZD0idGl0bGU0MTUxIj5TaGVldC4zNDY0PC90aXRsZT4mI3hhOwkJCTxwYXRoIGlkPSJwYXRoNDE1MyIgaW5rc2NhcGU6Y29ubmVjdG9yLWN1cnZhdHVyZT0iMCIgc3R5bGU9ImZpbGw6IzhEOUZCMDsiIGQ9Ik0wLDEyLjd2NDUuNDJoMjUuNjlWMTIuN0gweiIvPiYjeGE7CQk8L2c+JiN4YTsJCTxnIGlkPSJzaGFwZTM0NjUtMTQiIHRyYW5zZm9ybT0idHJhbnNsYXRlKDguNDM4NDgsLTIzLjYwNjIpIj4mI3hhOwkJCTx0aXRsZSBpZD0idGl0bGU0MTU2Ij5TaGVldC4zNDY1PC90aXRsZT4mI3hhOwkJCTxwYXRoIGlkPSJwYXRoNDE1OCIgaW5rc2NhcGU6Y29ubmVjdG9yLWN1cnZhdHVyZT0iMCIgc3R5bGU9ImZpbGw6I0ZGRkZGRjsiIGQ9Ik0xMi4zMyw1NC4yOWMtMC4zNCwwLjczLTAuNTEsMS4wNy0wLjk0LDEuNzIgICAgIGMtMC42LDAuOTUtMS40NiwyLjA3LTIuNSwyLjExYy0wLjk0LDAtMS4yLTAuNjUtMi40NS0wLjZjLTEuMjgsMC0xLjU0LDAuNi0yLjQ5LDAuNmMtMS4wNy0wLjA0LTEuODUtMS4wNy0yLjQ1LTEuOTggICAgIGMtMS43Mi0yLjU4LTEuODktNS42LTAuODYtNy4yNGMwLjc3LTEuMTIsMS45NC0xLjgxLDMuMDEtMS44MWMxLjEyLDAsMS44NSwwLjY1LDIuNzUsMC42NXMxLjQ3LTAuNjUsMi43NS0wLjY1ICAgICBjMC45OSwwLDIuMDMsMC41NiwyLjc1LDEuNDdDOS40OSw0OS44OSw5Ljg5LDUzLjM0LDEyLjMzLDU0LjI5eiIvPiYjeGE7CQk8L2c+JiN4YTsJCTxnIGlkPSJzaGFwZTM0NjYtMTYiIHRyYW5zZm9ybT0idHJhbnNsYXRlKDEzLjU3NjYsLTM0LjUxMDUpIj4mI3hhOwkJCTx0aXRsZSBpZD0idGl0bGU0MTYxIj5TaGVldC4zNDY2PC90aXRsZT4mI3hhOwkJCTxwYXRoIGlkPSJwYXRoNDE2MyIgaW5rc2NhcGU6Y29ubmVjdG9yLWN1cnZhdHVyZT0iMCIgc3R5bGU9ImZpbGw6I0ZGRkZGRjsiIGQ9Ik0yLjIsNTYuOTZjMC40NS0wLjYsMC43OS0xLjQxLDAuNjctMi4zMiAgICAgYy0wLjcyLDAuMDktMS42LDAuNTYtMi4xNSwxLjIxYy0wLjQ3LDAuNTUtMC44NSwxLjQxLTAuNjgsMi4yN0MwLjg1LDU4LjEyLDEuNzMsNTcuNjQsMi4yLDU2Ljk2eiIvPiYjeGE7CQk8L2c+JiN4YTsJPC9nPiYjeGE7PC9nPiYjeGE7PC9zdmc+;" vertex="1" parent="2">
          <mxGeometry x="20" y="290" width="65" height="130" as="geometry" />
        </mxCell>
        <mxCell id="cjwB_ALamql36mhWsSI0-43" value="" style="shape=image;verticalLabelPosition=bottom;labelBackgroundColor=#ffffff;verticalAlign=top;aspect=fixed;imageAspect=0;image=data:image/svg+xml,PHN2ZyB4bWxuczpjYz0iaHR0cDovL2NyZWF0aXZlY29tbW9ucy5vcmcvbnMjIiB4bWxuczpkYz0iaHR0cDovL3B1cmwub3JnL2RjL2VsZW1lbnRzLzEuMS8iIHhtbG5zOmlua3NjYXBlPSJodHRwOi8vd3d3Lmlua3NjYXBlLm9yZy9uYW1lc3BhY2VzL2lua3NjYXBlIiB4bWxuczpyZGY9Imh0dHA6Ly93d3cudzMub3JnLzE5OTkvMDIvMjItcmRmLXN5bnRheC1ucyMiIHhtbG5zOnNvZGlwb2RpPSJodHRwOi8vc29kaXBvZGkuc291cmNlZm9yZ2UubmV0L0RURC9zb2RpcG9kaS0wLmR0ZCIgeG1sbnM6c3ZnPSJodHRwOi8vd3d3LnczLm9yZy8yMDAwL3N2ZyIgeG1sbnM9Imh0dHA6Ly93d3cudzMub3JnLzIwMDAvc3ZnIiB4bWxuczp4bGluaz0iaHR0cDovL3d3dy53My5vcmcvMTk5OS94bGluayIgdmVyc2lvbj0iMS4xIiBpZD0ic3ZnMjY3OCIgaW5rc2NhcGU6dmVyc2lvbj0iMC45Mi4zICgyNDA1NTQ2LCAyMDE4LTAzLTExKSIgc29kaXBvZGk6ZG9jbmFtZT0iZGV2aWNlX2FuZHJvaWRfMS5zdmciIHg9IjBweCIgeT0iMHB4IiB2aWV3Qm94PSIwIDAgMzUuMTggNjcuODUiIHN0eWxlPSJlbmFibGUtYmFja2dyb3VuZDpuZXcgMCAwIDM1LjE4IDY3Ljg1OyIgeG1sOnNwYWNlPSJwcmVzZXJ2ZSI+JiN4YTs8c29kaXBvZGk6bmFtZWR2aWV3IGJvcmRlcmNvbG9yPSIjNjY2NjY2IiBib3JkZXJvcGFjaXR5PSIxIiBmaXQtbWFyZ2luLWJvdHRvbT0iMCIgZml0LW1hcmdpbi1sZWZ0PSIwIiBmaXQtbWFyZ2luLXJpZ2h0PSIwIiBmaXQtbWFyZ2luLXRvcD0iMCIgZ3JpZHRvbGVyYW5jZT0iMTAiIGd1aWRldG9sZXJhbmNlPSIxMCIgaWQ9Im5hbWVkdmlldzI2ODAiIGlua3NjYXBlOmN1cnJlbnQtbGF5ZXI9InN2ZzI2NzgiIGlua3NjYXBlOmN4PSIyMy40NTA4OCIgaW5rc2NhcGU6Y3k9IjQ1LjI0MDkyOCIgaW5rc2NhcGU6cGFnZW9wYWNpdHk9IjAiIGlua3NjYXBlOnBhZ2VzaGFkb3c9IjIiIGlua3NjYXBlOndpbmRvdy1oZWlnaHQ9IjEwMTciIGlua3NjYXBlOndpbmRvdy1tYXhpbWl6ZWQ9IjEiIGlua3NjYXBlOndpbmRvdy13aWR0aD0iMTkyMCIgaW5rc2NhcGU6d2luZG93LXg9Ii04IiBpbmtzY2FwZTp3aW5kb3cteT0iLTgiIGlua3NjYXBlOnpvb209IjkuNTg1MzcwNiIgb2JqZWN0dG9sZXJhbmNlPSIxMCIgcGFnZWNvbG9yPSIjZmZmZmZmIiBzaG93Z3JpZD0iZmFsc2UiPiYjeGE7CTwvc29kaXBvZGk6bmFtZWR2aWV3PiYjeGE7PGcgaWQ9ImcyNjc2Ij4mI3hhOwk8dGl0bGUgaWQ9InRpdGxlMjYzNiI+UGFnZS0xPC90aXRsZT4mI3hhOwk8ZyBpZD0iZ3JvdXAzNDkxLTEiPiYjeGE7CQk8dGl0bGUgaWQ9InRpdGxlMjYzOCI+RGV2aWNlOiBBbmRyb2lkICMxPC90aXRsZT4mI3hhOwkJPGcgaWQ9InNoYXBlMzQ5Mi0yIj4mI3hhOwkJCTx0aXRsZSBpZD0idGl0bGUyNjQwIj5TaGVldC4zNDkyPC90aXRsZT4mI3hhOwkJCTxwYXRoIGlkPSJwYXRoMjY0MiIgaW5rc2NhcGU6Y29ubmVjdG9yLWN1cnZhdHVyZT0iMCIgc3R5bGU9ImZpbGw6IzNGNTc2NTsiIGQ9Ik0zNC42OCw4LjdjLTAuMDYsMC0wLjA2LDAtMC4wNiwwICAgICBjMC00Ljc2LDAtNC43NiwwLTQuNzZjMC0xLjgzLTEuNDgtMi44OC0zLjMyLTIuODhjMCwwLTMuMjItMS4wNi0xMy4yNi0xLjA2QzcuOTQsMCwzLjg5LDEuMDYsMy44OSwxLjA2ICAgICBjLTEuODMsMC0zLjMzLDEuMDUtMy4zMywyLjg4YzAsOS41NywwLDkuNTcsMCw5LjU3QzAuMjMsMTMuOCwwLDE0LjE4LDAsMTQuNjhjMCw4LjI1LDAsOC4yNSwwLDguMjVjMCwwLjUsMC4yMywwLjg5LDAuNTYsMS4xNyAgICAgYzAsNDAuNDEsMCw0MC40MSwwLDQwLjQxYzAsMS44MywxLjUsMi43MSwzLjMzLDIuNzFjMCwwLDUuMSwwLjcyLDEzLjg4LDAuNjJjOC44MS0wLjExLDEzLjUzLTAuNjIsMTMuNTMtMC42MiAgICAgYzEuODQsMCwzLjMyLTAuODgsMy4zMi0yLjcxYzAtNTEuMzMsMC01MS4zMywwLTUxLjMzczAsMCwwLjA2LDBjMC4yOSwwLDAuNS0wLjIxLDAuNS0wLjQ5YzAtMy40OSwwLTMuNDksMC0zLjQ5ICAgICBDMzUuMTgsOC45MywzNC45Nyw4LjcsMzQuNjgsOC43eiIvPiYjeGE7CQk8L2c+JiN4YTsJCTxnIGlkPSJzaGFwZTM0OTMtNCIgdHJhbnNmb3JtPSJ0cmFuc2xhdGUoMy4wMDEzOSwtNy44MDM4MSkiPiYjeGE7CQkJPHRpdGxlIGlkPSJ0aXRsZTI2NDUiPlNoZWV0LjM0OTM8L3RpdGxlPiYjeGE7CQkJPHBhdGggaWQ9InBhdGgyNjQ3IiBpbmtzY2FwZTpjb25uZWN0b3ItY3VydmF0dXJlPSIwIiBzdHlsZT0iZmlsbDojOEQ5RkIwOyIgZD0iTTAsMTMuNTZ2NTQuMjhoMjkuMTdWMTMuNTZIMHoiLz4mI3hhOwkJPC9nPiYjeGE7CQk8ZyBpZD0ic2hhcGUzNDk0LTYiIHRyYW5zZm9ybT0idHJhbnNsYXRlKDE2LjY4NzcsLTYzLjQwNDEpIj4mI3hhOwkJCTx0aXRsZSBpZD0idGl0bGUyNjUwIj5TaGVldC4zNDk0PC90aXRsZT4mI3hhOwkJCTxwYXRoIGlkPSJwYXRoMjY1MiIgaW5rc2NhcGU6Y29ubmVjdG9yLWN1cnZhdHVyZT0iMCIgc3R5bGU9ImZpbGw6IzhFOUZCMDsiIGQ9Ik0wLDY2Ljk0YzAtMC41LDAuMzktMC45LDAuODQtMC45ICAgICBjMC40NywwLDAuODQsMC40LDAuODQsMC45YzAsMC41MS0wLjM3LDAuOS0wLjg0LDAuOUMwLjM5LDY3Ljg0LDAsNjcuNDUsMCw2Ni45NHoiLz4mI3hhOwkJPC9nPiYjeGE7CQk8ZyBpZD0ic2hhcGUzNDk1LTgiIHRyYW5zZm9ybT0idHJhbnNsYXRlKDUuNjQyNjEsLTYzLjg4MzQpIj4mI3hhOwkJCTx0aXRsZSBpZD0idGl0bGUyNjU1Ij5TaGVldC4zNDk1PC90aXRsZT4mI3hhOwkJCTxwYXRoIGlkPSJwYXRoMjY1NyIgaW5rc2NhcGU6Y29ubmVjdG9yLWN1cnZhdHVyZT0iMCIgc3R5bGU9ImZpbGw6IzhFOUZCMDsiIGQ9Ik0wLDY3LjQyQzAsNjcuMTksMC4yLDY3LDAuNDIsNjcgICAgIGMwLjI0LDAsMC40MiwwLjE5LDAuNDIsMC40MmMwLDAuMjQtMC4xOCwwLjQyLTAuNDIsMC40MkMwLjIsNjcuODQsMCw2Ny42NiwwLDY3LjQyeiIvPiYjeGE7CQk8L2c+JiN4YTsJCTxnIGlkPSJzaGFwZTM0OTYtMTAiIHRyYW5zZm9ybT0idHJhbnNsYXRlKDEwLjIwNDcsLTMwLjgxMDgpIj4mI3hhOwkJCTx0aXRsZSBpZD0idGl0bGUyNjYwIj5TaGVldC4zNDk2PC90aXRsZT4mI3hhOwkJCTxwYXRoIGlkPSJwYXRoMjY2MiIgaW5rc2NhcGU6Y29ubmVjdG9yLWN1cnZhdHVyZT0iMCIgc3R5bGU9ImZpbGw6I0ZGRkZGRjsiIGQ9Ik0xMy43Miw2MS40OWMtMC41NywwLTEuMDUsMC40OS0xLjA1LDEuMDkgICAgIGMwLDQuMTgsMCw0LjE4LDAsNC4xOGMwLDAuNiwwLjQ4LDEuMDgsMS4wNSwxLjA4YzAuNTgsMCwxLjA1LTAuNDgsMS4wNS0xLjA4YzAtNC4xOCwwLTQuMTgsMC00LjE4ICAgICBDMTQuNzcsNjEuOTgsMTQuMyw2MS40OSwxMy43Miw2MS40OXogTTEuMDcsNjEuNDlDMC40OCw2MS40OSwwLDYxLjk4LDAsNjIuNThjMCw0LjE4LDAsNC4xOCwwLDQuMThjMCwwLjYsMC40OCwxLjA4LDEuMDcsMS4wOCAgICAgYzAuNTcsMCwxLjA1LTAuNDgsMS4wNS0xLjA4YzAtNC4xOCwwLTQuMTgsMC00LjE4QzIuMTIsNjEuOTgsMS42NCw2MS40OSwxLjA3LDYxLjQ5eiIvPiYjeGE7CQk8L2c+JiN4YTsJCTxnIGlkPSJzaGFwZTM0OTctMTIiIHRyYW5zZm9ybT0idHJhbnNsYXRlKDEyLjk2NiwtMjUuMjk4NykiPiYjeGE7CQkJPHRpdGxlIGlkPSJ0aXRsZTI2NjUiPlNoZWV0LjM0OTc8L3RpdGxlPiYjeGE7CQkJPHBhdGggaWQ9InBhdGgyNjY3IiBpbmtzY2FwZTpjb25uZWN0b3ItY3VydmF0dXJlPSIwIiBzdHlsZT0iZmlsbDojRkZGRkZGOyIgZD0iTTAsNTYuMDljMCw3LjU4LDAsNy41OCwwLDcuNTggICAgIGMwLDAuNDUsMC4zNiwwLjgxLDAuODEsMC44MWMwLjkzLDAsMC45MywwLDAuOTMsMGMwLDIuMjksMCwyLjI5LDAsMi4yOWMwLDAuNiwwLjQ3LDEuMDcsMS4wNCwxLjA3czEuMDUtMC40NywxLjA1LTEuMDcgICAgIGMwLTIuMjksMC0yLjI5LDAtMi4yOWMxLjYsMCwxLjYsMCwxLjYsMGMwLDIuMjksMCwyLjI5LDAsMi4yOWMwLDAuNiwwLjQ4LDEuMDcsMS4wNSwxLjA3czEuMDQtMC40NywxLjA0LTEuMDcgICAgIGMwLTIuMjksMC0yLjI5LDAtMi4yOWMwLjkzLDAsMC45MywwLDAuOTMsMGMwLjQ1LDAsMC43OS0wLjM2LDAuNzktMC44MWMwLTcuNTgsMC03LjU4LDAtNy41OEwwLDU2LjA5eiIvPiYjeGE7CQk8L2c+JiN4YTsJCTxnIGlkPSJzaGFwZTM0OTgtMTQiIHRyYW5zZm9ybT0idHJhbnNsYXRlKDEyLjk2NiwtMzcuNzYwOSkiPiYjeGE7CQkJPHRpdGxlIGlkPSJ0aXRsZTI2NzAiPlNoZWV0LjM0OTg8L3RpdGxlPiYjeGE7CQkJPHBhdGggaWQ9InBhdGgyNjcyIiBpbmtzY2FwZTpjb25uZWN0b3ItY3VydmF0dXJlPSIwIiBzdHlsZT0iZmlsbDojRkZGRkZGOyIgZD0iTTYuODMsNjQuNTZjMC44NS0xLjI1LDAuODUtMS4yNSwwLjg1LTEuMjUgICAgIGMwLjA1LTAuMDcsMC4wMy0wLjE2LTAuMDEtMC4yMWMtMC4wOC0wLjA2LTAuMTctMC4wMy0wLjIzLDAuMDVjLTAuOSwxLjMyLTAuOSwxLjMyLTAuOSwxLjMyYy0wLjU4LTAuMjQtMS4yMy0wLjM5LTEuOTItMC4zOSAgICAgYy0wLjY3LDAtMS4zMiwwLjE1LTEuOSwwLjM5Yy0wLjktMS4zMi0wLjktMS4zMi0wLjktMS4zMmMtMC4wNi0wLjA4LTAuMTUtMC4xMS0wLjIzLTAuMDVjLTAuMDQsMC4wNS0wLjA2LDAuMTQtMC4wMSwwLjIxICAgICBjMC44NSwxLjI1LDAuODUsMS4yNSwwLjg1LDEuMjVDMS4wOCw2NS4yLDAuMTIsNjYuNDMsMCw2Ny44NGM5LjI0LDAsOS4yNCwwLDkuMjQsMEM5LjE0LDY2LjQzLDguMTgsNjUuMiw2LjgzLDY0LjU2eiAgICAgIE0yLjY5LDY2LjU1Yy0wLjI5LDAtMC41My0wLjI0LTAuNTMtMC41MmMwLTAuMjcsMC4yNC0wLjUxLDAuNTMtMC41MWMwLjI4LDAsMC40OSwwLjI0LDAuNDksMC41MSAgICAgQzMuMTgsNjYuMzEsMi45Nyw2Ni41NSwyLjY5LDY2LjU1eiBNNi42NSw2Ni41NWMtMC4yOSwwLTAuNS0wLjI0LTAuNS0wLjUyYzAtMC4yNywwLjIxLTAuNTEsMC41LTAuNTEgICAgIGMwLjI4LDAsMC41MSwwLjI0LDAuNTEsMC41MUM3LjE2LDY2LjMxLDYuOTMsNjYuNTUsNi42NSw2Ni41NXoiLz4mI3hhOwkJPC9nPiYjeGE7CTwvZz4mI3hhOzwvZz4mI3hhOzwvc3ZnPg==;" vertex="1" parent="2">
          <mxGeometry x="171.4" y="290" width="66.91" height="130" as="geometry" />
        </mxCell>
        <mxCell id="cjwB_ALamql36mhWsSI0-46" value="" style="shape=image;verticalLabelPosition=bottom;labelBackgroundColor=#ffffff;verticalAlign=top;aspect=fixed;imageAspect=0;image=data:image/svg+xml,PHN2ZyB4bWxuczpjYz0iaHR0cDovL2NyZWF0aXZlY29tbW9ucy5vcmcvbnMjIiB4bWxuczpkYz0iaHR0cDovL3B1cmwub3JnL2RjL2VsZW1lbnRzLzEuMS8iIHhtbG5zOmlua3NjYXBlPSJodHRwOi8vd3d3Lmlua3NjYXBlLm9yZy9uYW1lc3BhY2VzL2lua3NjYXBlIiB4bWxuczpyZGY9Imh0dHA6Ly93d3cudzMub3JnLzE5OTkvMDIvMjItcmRmLXN5bnRheC1ucyMiIHhtbG5zOnNvZGlwb2RpPSJodHRwOi8vc29kaXBvZGkuc291cmNlZm9yZ2UubmV0L0RURC9zb2RpcG9kaS0wLmR0ZCIgeG1sbnM6c3ZnPSJodHRwOi8vd3d3LnczLm9yZy8yMDAwL3N2ZyIgeG1sbnM9Imh0dHA6Ly93d3cudzMub3JnLzIwMDAvc3ZnIiB4bWxuczp4bGluaz0iaHR0cDovL3d3dy53My5vcmcvMTk5OS94bGluayIgdmVyc2lvbj0iMS4xIiBpZD0ic3ZnMTU3MjczIiBpbmtzY2FwZTp2ZXJzaW9uPSIwLjkyLjMgKDI0MDU1NDYsIDIwMTgtMDMtMTEpIiBzb2RpcG9kaTpkb2NuYW1lPSJhenVyZV9wb3J0YWxfcmVtb3RlYXBwLnN2ZyIgeD0iMHB4IiB5PSIwcHgiIHZpZXdCb3g9IjAgMCA1OS4zOCA0NS45NSIgc3R5bGU9ImVuYWJsZS1iYWNrZ3JvdW5kOm5ldyAwIDAgNTkuMzggNDUuOTU7IiB4bWw6c3BhY2U9InByZXNlcnZlIj4mI3hhOzxzb2RpcG9kaTpuYW1lZHZpZXcgYm9yZGVyY29sb3I9IiM2NjY2NjYiIGJvcmRlcm9wYWNpdHk9IjEiIGZpdC1tYXJnaW4tYm90dG9tPSIwIiBmaXQtbWFyZ2luLWxlZnQ9IjAiIGZpdC1tYXJnaW4tcmlnaHQ9IjAiIGZpdC1tYXJnaW4tdG9wPSIwIiBncmlkdG9sZXJhbmNlPSIxMCIgZ3VpZGV0b2xlcmFuY2U9IjEwIiBpZD0ibmFtZWR2aWV3MTU3Mjc1IiBpbmtzY2FwZTpjdXJyZW50LWxheWVyPSJzdmcxNTcyNzMiIGlua3NjYXBlOmN4PSI1My41OTA0MjUiIGlua3NjYXBlOmN5PSIxMy42MTkwMjIiIGlua3NjYXBlOnBhZ2VvcGFjaXR5PSIwIiBpbmtzY2FwZTpwYWdlc2hhZG93PSIyIiBpbmtzY2FwZTp3aW5kb3ctaGVpZ2h0PSIxMDE3IiBpbmtzY2FwZTp3aW5kb3ctbWF4aW1pemVkPSIxIiBpbmtzY2FwZTp3aW5kb3ctd2lkdGg9IjE5MjAiIGlua3NjYXBlOndpbmRvdy14PSItOCIgaW5rc2NhcGU6d2luZG93LXk9Ii04IiBpbmtzY2FwZTp6b29tPSI3LjA3NTI3NjEiIG9iamVjdHRvbGVyYW5jZT0iMTAiIHBhZ2Vjb2xvcj0iI2ZmZmZmZiIgc2hvd2dyaWQ9ImZhbHNlIj4mI3hhOwk8L3NvZGlwb2RpOm5hbWVkdmlldz4mI3hhOzxnIGlkPSJnMTU3MjcxIiB0cmFuc2Zvcm09InRyYW5zbGF0ZSgwLDAuMDAzOSkiPiYjeGE7CTx0aXRsZSBpZD0idGl0bGUxNTcyMjYiPlBhZ2UtMTwvdGl0bGU+JiN4YTsJPGcgaWQ9Imdyb3VwMzYxOC0xIj4mI3hhOwkJPHRpdGxlIGlkPSJ0aXRsZTE1NzIyOCI+QXp1cmUgUG9ydGFsIFJlbW90ZUFwcDwvdGl0bGU+JiN4YTsJCTxnIGlkPSJzaGFwZTM2MTktMiIgdHJhbnNmb3JtPSJ0cmFuc2xhdGUoMTMuNDY3NywtMTIuMjUzOSkiPiYjeGE7CQkJPHRpdGxlIGlkPSJ0aXRsZTE1NzIzMCI+U2hlZXQuMzYxOTwvdGl0bGU+JiN4YTsJCQk8cGF0aCBpZD0icGF0aDE1NzIzMiIgaW5rc2NhcGU6Y29ubmVjdG9yLWN1cnZhdHVyZT0iMCIgc3R5bGU9ImZpbGw6IzNGNTc2NTsiIGQ9Ik0zNy44LDI2Ljk2YzAtMC4xNSwwLTAuMjcsMC0wLjU4ICAgICBjMC03LjczLTYuMzUtMTQuMTMtMTQtMTQuMTNjLTQuOSwwLTkuMTgsMi41My0xMS42Nyw2LjI1Yy0xLjE5LTAuNTgtMi41My0xLjA0LTMuOTgtMS4wNGMtNC40NCwwLTgsMy41Ni04LjE1LDguMDEgICAgIGMwLDAsMCwwLDAsMC4xNWMxOC4zMywwLDE4LjMzLDAsMTguMzMsMGMxLjAzLDAsMS4wMywwLDEuMDMsMGMwLDAuOTIsMCwwLjkyLDAsMC45MmMwLDEyLjksMCwxMi45LDAsMTIuOSAgICAgYzMuODMsMC40Niw3LjIzLDIuOTUsOC41Nyw2LjUxYzguNTcsMCw4LjU3LDAsOC41NywwbDAsMGM1LjI4LDAsOS40MS00LjI5LDkuNDEtOS40OUM0NS45MSwzMS41NSw0Mi4zOSwyNy43MiwzNy44LDI2Ljk2eiIvPiYjeGE7CQk8L2c+JiN4YTsJCTxnIGlkPSJzaGFwZTM2MjAtNCIgdHJhbnNmb3JtPSJ0cmFuc2xhdGUoMjIuNjUwMikiPiYjeGE7CQkJPHRpdGxlIGlkPSJ0aXRsZTE1NzIzNSI+U2hlZXQuMzYyMDwvdGl0bGU+JiN4YTsJCQk8cGF0aCBpZD0icGF0aDE1NzIzNyIgaW5rc2NhcGU6Y29ubmVjdG9yLWN1cnZhdHVyZT0iMCIgc3R5bGU9ImZpbGw6IzNGNTc2NTsiIGQ9Ik04Ljg0LDI4LjE4Yy00Ljg2LDAtOC44NCw0LjEtOC44NCw4Ljg5ICAgICBjMCw0Ljk4LDMuOTgsOC44OCw4Ljg0LDguODhjNC45NywwLDguOTEtMy45LDguOTEtOC44OEMxNy43NSwzMi4yOCwxMy44MSwyOC4xOCw4Ljg0LDI4LjE4eiBNOC44NCw0NC41ICAgICBjLTQuMTMsMC03LjUtMy4zMy03LjUtNy40M2MwLTQuMDYsMy4zNy03LjM5LDcuNS03LjM5YzQuMjUsMCw3LjYxLDMuMzMsNy42MSw3LjM5QzE2LjQ1LDQxLjE3LDEzLjA5LDQ0LjUsOC44NCw0NC41eiIvPiYjeGE7CQk8L2c+JiN4YTsJCTxnIGlkPSJzaGFwZTM2MjEtNiIgdHJhbnNmb3JtPSJ0cmFuc2xhdGUoMzEuMjIwNSwtNi4xMjY5NykiPiYjeGE7CQkJPHRpdGxlIGlkPSJ0aXRsZTE1NzI0MCI+U2hlZXQuMzYyMTwvdGl0bGU+JiN4YTsJCQk8cGF0aCBpZD0icGF0aDE1NzI0MiIgaW5rc2NhcGU6Y29ubmVjdG9yLWN1cnZhdHVyZT0iMCIgc3R5bGU9ImZpbGw6IzNGNTc2NTsiIGQ9Ik00LjIxLDM3LjM3TDAsNDEuNzRsNC4yMSw0LjIxbDEuMy0xLjE4ICAgICBsLTMuMDItMy4wM2wzLjAyLTMuMTRMNC4yMSwzNy4zN3oiLz4mI3hhOwkJPC9nPiYjeGE7CQk8ZyBpZD0ic2hhcGUzNjIyLTgiIHRyYW5zZm9ybT0idHJhbnNsYXRlKDI2LjMyMzIsLTMuNjc2MTgpIj4mI3hhOwkJCTx0aXRsZSBpZD0idGl0bGUxNTcyNDUiPlNoZWV0LjM2MjI8L3RpdGxlPiYjeGE7CQkJPHBhdGggaWQ9InBhdGgxNTcyNDciIGlua3NjYXBlOmNvbm5lY3Rvci1jdXJ2YXR1cmU9IjAiIHN0eWxlPSJmaWxsOiMzRjU3NjU7IiBkPSJNMCwzOS4yNWwzLjAyLDIuODNMMCw0NC44NGwxLjM0LDEuMTEgICAgIGw0LjE3LTMuODdsLTQuMTctNC4wOUwwLDM5LjI1eiIvPiYjeGE7CQk8L2c+JiN4YTsJCTxnIGlkPSJzaGFwZTM2MjMtMTAiIHRyYW5zZm9ybT0idHJhbnNsYXRlKDAsLTcuMzUyMzYpIj4mI3hhOwkJCTx0aXRsZSBpZD0idGl0bGUxNTcyNTAiPlNoZWV0LjM2MjM8L3RpdGxlPiYjeGE7CQkJPHBhdGggaWQ9InBhdGgxNTcyNTIiIGlua3NjYXBlOmNvbm5lY3Rvci1jdXJ2YXR1cmU9IjAiIHN0eWxlPSJmaWxsOiMzRjU3NjU7IiBkPSJNMS4zOCw0NC42NWMwLTE2LjY2LDAtMTYuNjYsMC0xNi42NiAgICAgYzI5LjExLDAsMjkuMTEsMCwyOS4xMSwwYzAsNi41NSwwLDYuNTUsMCw2LjU1YzAuNDYsMCwwLjkyLTAuMTUsMS4zNC0wLjE1YzAtMTIuOTUsMC0xMi45NSwwLTEyLjk1QzAsMjEuNDQsMCwyMS40NCwwLDIxLjQ0ICAgICBjMCwyNC41MSwwLDI0LjUxLDAsMjQuNTFjMjEuOTIsMCwyMS45MiwwLDIxLjkyLDBjMC0wLjQyLDAtMC44OC0wLjExLTEuM0wxLjM4LDQ0LjY1eiIvPiYjeGE7CQk8L2c+JiN4YTsJCTxnIGlkPSJzaGFwZTM2MjQtMTIiIHRyYW5zZm9ybT0idHJhbnNsYXRlKDcuOTU4MTcsLTExLjAyODUpIj4mI3hhOwkJCTx0aXRsZSBpZD0idGl0bGUxNTcyNTUiPlNoZWV0LjM2MjQ8L3RpdGxlPiYjeGE7CQkJPHBhdGggaWQ9InBhdGgxNTcyNTciIGlua3NjYXBlOmNvbm5lY3Rvci1jdXJ2YXR1cmU9IjAiIHN0eWxlPSJmaWxsOiMzRjU3NjU7IiBkPSJNMTMuNTEsMzMuMDljLTEyLjksMC0xMi45LDAtMTIuOSwwICAgICBjLTAuMywwLTAuNjEsMC4zLTAuNjEsMC42MWMwLDExLjUyLDAsMTEuNTIsMCwxMS41MmMwLDAuNDYsMC4zMSwwLjczLDAuNjEsMC43M2MxMi45LDAsMTIuOSwwLDEyLjksMCAgICAgYzAuNDYsMCwwLjU3LTAuMjcsMC41Ny0wLjczYzAtMTEuNTIsMC0xMS41MiwwLTExLjUyQzE0LjA4LDMzLjM5LDEzLjk3LDMzLjA5LDEzLjUxLDMzLjA5eiBNMTMuMiwzMy43YzAsMTEuNTIsMCwxMS41MiwwLDExLjUyICAgICBjLTEyLjQzLDAtMTIuNDMsMC0xMi40MywwYzAtMTEuNTIsMC0xMS41MiwwLTExLjUyQzEzLjIsMzMuNywxMy4yLDMzLjcsMTMuMiwzMy43eiIvPiYjeGE7CQk8L2c+JiN4YTsJCTxnIGlkPSJzaGFwZTM2MjUtMTQiIHRyYW5zZm9ybT0idHJhbnNsYXRlKDExLjYzMTIsLTE0LjA5MikiPiYjeGE7CQkJPHRpdGxlIGlkPSJ0aXRsZTE1NzI2MCI+U2hlZXQuMzYyNTwvdGl0bGU+JiN4YTsJCQk8cGF0aCBpZD0icGF0aDE1NzI2MiIgaW5rc2NhcGU6Y29ubmVjdG9yLWN1cnZhdHVyZT0iMCIgc3R5bGU9ImZpbGw6IzNGNTc2NTsiIGQ9Ik0xLjY4LDQ0LjYxbDAuOTYsMS4zNGwwLjczLTMuODdoMS43MmwxLjIyLTEuNiAgICAgbDEuMDQsMS45NWwwLjYxLTAuMzVsLTEuNTMtMi44N2wtMS42NSwyLjI2SDIuNzlsLTAuNDYsMi42OGwtMC40Ni0wLjczTDAsNDUuMjJsMC40NiwwLjQzTDEuNjgsNDQuNjF6Ii8+JiN4YTsJCTwvZz4mI3hhOwkJPGcgaWQ9InNoYXBlMzYyNi0xNiIgdHJhbnNmb3JtPSJ0cmFuc2xhdGUoMTAuNDA2OCwtMTIuODY2NikiPiYjeGE7CQkJPHRpdGxlIGlkPSJ0aXRsZTE1NzI2NSI+U2hlZXQuMzYyNjwvdGl0bGU+JiN4YTsJCQk8cGF0aCBpZD0icGF0aDE1NzI2NyIgaW5rc2NhcGU6Y29ubmVjdG9yLWN1cnZhdHVyZT0iMCIgc3R5bGU9ImZpbGw6IzNGNTc2NTsiIGQ9Ik05LjE4LDQ1LjI2SDAuOHYtNy44OUgwdjguNThoOS4xOFY0NS4yNnoiLz4mI3hhOwkJPC9nPiYjeGE7CTwvZz4mI3hhOzwvZz4mI3hhOzwvc3ZnPg==;" vertex="1" parent="2">
          <mxGeometry x="150" y="550" width="307.82" height="240" as="geometry" />
        </mxCell>
        <mxCell id="cjwB_ALamql36mhWsSI0-47" value="" style="shape=image;verticalLabelPosition=bottom;labelBackgroundColor=#ffffff;verticalAlign=top;aspect=fixed;imageAspect=0;image=data:image/svg+xml,PHN2ZyB4bWxuczpkYz0iaHR0cDovL3B1cmwub3JnL2RjL2VsZW1lbnRzLzEuMS8iIHhtbG5zOmNjPSJodHRwOi8vY3JlYXRpdmVjb21tb25zLm9yZy9ucyMiIHhtbG5zOnJkZj0iaHR0cDovL3d3dy53My5vcmcvMTk5OS8wMi8yMi1yZGYtc3ludGF4LW5zIyIgeG1sbnM6c3ZnPSJodHRwOi8vd3d3LnczLm9yZy8yMDAwL3N2ZyIgeG1sbnM9Imh0dHA6Ly93d3cudzMub3JnLzIwMDAvc3ZnIiB4bWxuczpzb2RpcG9kaT0iaHR0cDovL3NvZGlwb2RpLnNvdXJjZWZvcmdlLm5ldC9EVEQvc29kaXBvZGktMC5kdGQiIHhtbG5zOmlua3NjYXBlPSJodHRwOi8vd3d3Lmlua3NjYXBlLm9yZy9uYW1lc3BhY2VzL2lua3NjYXBlIiB2ZXJzaW9uPSIxLjEiIGlkPSJzdmcxMTI2NDAiIGlua3NjYXBlOnZlcnNpb249IjAuOTIuMyAoMjQwNTU0NiwgMjAxOC0wMy0xMSkiIHNvZGlwb2RpOmRvY25hbWU9ImxvZ2ljX2FwcHMuc3ZnIiB4PSIwcHgiIHk9IjBweCIgdmlld0JveD0iMCAwIDU2LjYzMDAwMiA1Ni41OTk5OTkiIHhtbDpzcGFjZT0icHJlc2VydmUiIHdpZHRoPSI1Ni42MzAwMDEiIGhlaWdodD0iNTYuNTk5OTk4Ij48bWV0YWRhdGEgaWQ9Im1ldGFkYXRhMTczMyI+PHJkZjpSREY+PGNjOldvcmsgcmRmOmFib3V0PSIiPjxkYzpmb3JtYXQ+aW1hZ2Uvc3ZnK3htbDwvZGM6Zm9ybWF0PjxkYzp0eXBlIHJkZjpyZXNvdXJjZT0iaHR0cDovL3B1cmwub3JnL2RjL2RjbWl0eXBlL1N0aWxsSW1hZ2UiLz48ZGM6dGl0bGUvPjwvY2M6V29yaz48L3JkZjpSREY+PC9tZXRhZGF0YT48ZGVmcyBpZD0iZGVmczE3MzEiPiYjeGE7CSYjeGE7CSYjeGE7JiN4YTsJCSYjeGE7CQkmI3hhOwkJJiN4YTsJCSYjeGE7CSYjeGE7CQkJJiN4YTsJCQkmI3hhOwkJJiN4YTsJCQkmI3hhOwkJCSYjeGE7CQkJJiN4YTsJCSYjeGE7CQkJJiN4YTsJCQkmI3hhOwkJPC9kZWZzPiYjeGE7PHNvZGlwb2RpOm5hbWVkdmlldyBib3JkZXJjb2xvcj0iIzY2NjY2NiIgYm9yZGVyb3BhY2l0eT0iMSIgZml0LW1hcmdpbi1ib3R0b209IjAiIGZpdC1tYXJnaW4tbGVmdD0iMCIgZml0LW1hcmdpbi1yaWdodD0iMCIgZml0LW1hcmdpbi10b3A9IjAiIGdyaWR0b2xlcmFuY2U9IjEwIiBndWlkZXRvbGVyYW5jZT0iMTAiIGlkPSJuYW1lZHZpZXcxMTI2NDIiIGlua3NjYXBlOmN1cnJlbnQtbGF5ZXI9InN2ZzExMjY0MCIgaW5rc2NhcGU6Y3g9Ii02LjA5NzA4OTUiIGlua3NjYXBlOmN5PSIzMC40NDY1ODQiIGlua3NjYXBlOnBhZ2VvcGFjaXR5PSIwIiBpbmtzY2FwZTpwYWdlc2hhZG93PSIyIiBpbmtzY2FwZTp3aW5kb3ctaGVpZ2h0PSIxMDE3IiBpbmtzY2FwZTp3aW5kb3ctbWF4aW1pemVkPSIxIiBpbmtzY2FwZTp3aW5kb3ctd2lkdGg9IjE5MjAiIGlua3NjYXBlOndpbmRvdy14PSItOCIgaW5rc2NhcGU6d2luZG93LXk9Ii04IiBpbmtzY2FwZTp6b29tPSI3LjcxODkwNDIiIG9iamVjdHRvbGVyYW5jZT0iMTAiIHBhZ2Vjb2xvcj0iI2ZmZmZmZiIgc2hvd2dyaWQ9ImZhbHNlIj4mI3hhOwk8L3NvZGlwb2RpOm5hbWVkdmlldz4mI3hhOzxwYXRoIGQ9Im0gMjguMzA4NjcsMzIuMjkxOTggYyAxLjk4LDAgNC4wNSwtMS45NyA0LjA1LC0zLjk0IDAsLTIuMDcgLTIuMDcsLTQuMDQgLTQuMDUsLTQuMDQgLTEuOTcsMCAtNC4wNCwxLjk3IC00LjA0LDQuMDQgMCwxLjk3IDIuMDcsMy45NCA0LjA0LDMuOTQgeiIgc3R5bGU9ImZpbGw6IzNlNTg2NSIgaW5rc2NhcGU6Y29ubmVjdG9yLWN1cnZhdHVyZT0iMCIgaWQ9InBhdGgxMTI2MjIiLz48cmVjdCB4PSItNjIuODA1OTMxIiBoZWlnaHQ9IjU3LjAyOTk5OSIgd2lkdGg9IjU3LjE1MDAwMiIgc3R5bGU9ImRpc3BsYXk6bm9uZTtmaWxsOiMyNjI2MjYiIHk9IjIuMjgzOTc5OSIgaWQ9InJlY3QxMTI2MjciLz48cGF0aCBkPSJtIDkuOTcsNTYuNiBjIDEwLjA3LC00LjA0IDEwLjA3LC00LjA0IDEwLjA3LC00LjA0IDMuNDgsMy41NyAzLjQ4LDMuNTcgMy40OCwzLjU3IDE1LjA1LDAgMTUuMDUsMCAxNS4wNSwwIDAsLTIxLjAyIDAsLTIxLjAyIDAsLTIxLjAyIDMuNTcsLTMuNTcgMy41NywtMy41NyAzLjU3LC0zLjU3IDkuNSwtNy45OCAxNC40OSwtMTguNDkgMTQuNDksLTI5LjQ3IDAsLTIuMDcgMCwtMi4wNyAwLC0yLjA3IC0xLjk4LDAgLTEuOTgsMCAtMS45OCwwIC0xMSwwIC0yMS41NCw1LjA3IC0yOS42MywxNC41NSAtMy40OCwzLjQ3IC0zLjQ4LDMuNDcgLTMuNDgsMy40NyAtMjEuMDcsMCAtMjEuMDcsMCAtMjEuMDcsMCAwLDE1LjAyIDAsMTUuMDIgMCwxNS4wMiAzLjQ4LDMuNTcgMy40OCwzLjU3IDMuNDgsMy41NyBDIDAsNDYuNTYgMCw0Ni41NiAwLDQ2LjU2IFogTSA0Ljk5LDQ1LjYyIGMgMS45NywtNi4wMSAxLjk3LC02LjAxIDEuOTcsLTYuMDEgMTAuMDcsOS45NSAxMC4wNyw5Ljk1IDEwLjA3LDkuOTUgLTYuMDIsMi4wNiAtNi4wMiwyLjA2IC02LjAyLDIuMDYgeiBtIDI5LjYzLDYuNDcgYyAtOS4wMywwIC05LjAzLDAgLTkuMDMsMCAtMi4wNywtMS45NyAtMi4wNywtMS45NyAtMi4wNywtMS45NyAxMS4xLC0xMS4wNyAxMS4xLC0xMS4wNyAxMS4xLC0xMS4wNyB6IE0gNDYuMDksMjEuMDMgQyAzNS41NiwxMC4wNSAzNS41NiwxMC4wNSAzNS41NiwxMC4wNSA0MC42NCw2LjU3IDQ2LjY2LDQuNTEgNTIuNjgsNC4wNCA1Mi4xMSwxMC4wNSA1MC4xNCwxNi4wNSA0Ni4wOSwyMS4wMyBaIE0gMjguMDMsMTcuNTUgYyAxLjUxLC0xLjk3IDMuMDEsLTMuNDcgNC41MiwtNC41IDExLjEsMTAuOTggMTEuMSwxMC45OCAxMS4xLDEwLjk4IC0xLjA0LDEuNSAtMi41NCwzIC00LjUyLDQuNTEgQyAyMC41MSw0Ny4xMiAyMC41MSw0Ny4xMiAyMC41MSw0Ny4xMiA5LjUsMzYuMDQgOS41LDM2LjA0IDkuNSwzNi4wNCBaIE0gNC41MiwyMi4wNiBjIDEyLjk4LDAgMTIuOTgsMCAxMi45OCwwIEMgNi40OSwzMy4wNCA2LjQ5LDMzLjA0IDYuNDksMzMuMDQgNC41MiwzMS4wNyA0LjUyLDMxLjA3IDQuNTIsMzEuMDcgWiIgc3R5bGU9ImZpbGw6IzNlNTg2NSIgaW5rc2NhcGU6Y29ubmVjdG9yLWN1cnZhdHVyZT0iMCIgaWQ9InBhdGgxMTI2MzQiLz4mI3hhOzwvc3ZnPg==;rotation=135;" vertex="1" parent="2">
          <mxGeometry x="320" y="108.25" width="90" height="90" as="geometry" />
        </mxCell>
        <mxCell id="cjwB_ALamql36mhWsSI0-48" value="" style="shape=image;verticalLabelPosition=bottom;labelBackgroundColor=#ffffff;verticalAlign=top;aspect=fixed;imageAspect=0;image=data:image/svg+xml,PHN2ZyB4bWxuczpkYz0iaHR0cDovL3B1cmwub3JnL2RjL2VsZW1lbnRzLzEuMS8iIHhtbG5zOmNjPSJodHRwOi8vY3JlYXRpdmVjb21tb25zLm9yZy9ucyMiIHhtbG5zOnJkZj0iaHR0cDovL3d3dy53My5vcmcvMTk5OS8wMi8yMi1yZGYtc3ludGF4LW5zIyIgeG1sbnM6c3ZnPSJodHRwOi8vd3d3LnczLm9yZy8yMDAwL3N2ZyIgeG1sbnM9Imh0dHA6Ly93d3cudzMub3JnLzIwMDAvc3ZnIiB4bWxuczpzb2RpcG9kaT0iaHR0cDovL3NvZGlwb2RpLnNvdXJjZWZvcmdlLm5ldC9EVEQvc29kaXBvZGktMC5kdGQiIHhtbG5zOmlua3NjYXBlPSJodHRwOi8vd3d3Lmlua3NjYXBlLm9yZy9uYW1lc3BhY2VzL2lua3NjYXBlIiB2ZXJzaW9uPSIxLjEiIGlkPSJzdmcxMTI2NDAiIGlua3NjYXBlOnZlcnNpb249IjAuOTIuMyAoMjQwNTU0NiwgMjAxOC0wMy0xMSkiIHNvZGlwb2RpOmRvY25hbWU9ImxvZ2ljX2FwcHMuc3ZnIiB4PSIwcHgiIHk9IjBweCIgdmlld0JveD0iMCAwIDU2LjYzMDAwMiA1Ni41OTk5OTkiIHhtbDpzcGFjZT0icHJlc2VydmUiIHdpZHRoPSI1Ni42MzAwMDEiIGhlaWdodD0iNTYuNTk5OTk4Ij48bWV0YWRhdGEgaWQ9Im1ldGFkYXRhMTczMyI+PHJkZjpSREY+PGNjOldvcmsgcmRmOmFib3V0PSIiPjxkYzpmb3JtYXQ+aW1hZ2Uvc3ZnK3htbDwvZGM6Zm9ybWF0PjxkYzp0eXBlIHJkZjpyZXNvdXJjZT0iaHR0cDovL3B1cmwub3JnL2RjL2RjbWl0eXBlL1N0aWxsSW1hZ2UiLz48ZGM6dGl0bGUvPjwvY2M6V29yaz48L3JkZjpSREY+PC9tZXRhZGF0YT48ZGVmcyBpZD0iZGVmczE3MzEiPiYjeGE7CSYjeGE7CSYjeGE7JiN4YTsJCSYjeGE7CQkmI3hhOwkJJiN4YTsJCSYjeGE7CSYjeGE7CQkJJiN4YTsJCQkmI3hhOwkJJiN4YTsJCQkmI3hhOwkJCSYjeGE7CQkJJiN4YTsJCSYjeGE7CQkJJiN4YTsJCQkmI3hhOwkJPC9kZWZzPiYjeGE7PHNvZGlwb2RpOm5hbWVkdmlldyBib3JkZXJjb2xvcj0iIzY2NjY2NiIgYm9yZGVyb3BhY2l0eT0iMSIgZml0LW1hcmdpbi1ib3R0b209IjAiIGZpdC1tYXJnaW4tbGVmdD0iMCIgZml0LW1hcmdpbi1yaWdodD0iMCIgZml0LW1hcmdpbi10b3A9IjAiIGdyaWR0b2xlcmFuY2U9IjEwIiBndWlkZXRvbGVyYW5jZT0iMTAiIGlkPSJuYW1lZHZpZXcxMTI2NDIiIGlua3NjYXBlOmN1cnJlbnQtbGF5ZXI9InN2ZzExMjY0MCIgaW5rc2NhcGU6Y3g9Ii02LjA5NzA4OTUiIGlua3NjYXBlOmN5PSIzMC40NDY1ODQiIGlua3NjYXBlOnBhZ2VvcGFjaXR5PSIwIiBpbmtzY2FwZTpwYWdlc2hhZG93PSIyIiBpbmtzY2FwZTp3aW5kb3ctaGVpZ2h0PSIxMDE3IiBpbmtzY2FwZTp3aW5kb3ctbWF4aW1pemVkPSIxIiBpbmtzY2FwZTp3aW5kb3ctd2lkdGg9IjE5MjAiIGlua3NjYXBlOndpbmRvdy14PSItOCIgaW5rc2NhcGU6d2luZG93LXk9Ii04IiBpbmtzY2FwZTp6b29tPSI3LjcxODkwNDIiIG9iamVjdHRvbGVyYW5jZT0iMTAiIHBhZ2Vjb2xvcj0iI2ZmZmZmZiIgc2hvd2dyaWQ9ImZhbHNlIj4mI3hhOwk8L3NvZGlwb2RpOm5hbWVkdmlldz4mI3hhOzxwYXRoIGQ9Im0gMjguMzA4NjcsMzIuMjkxOTggYyAxLjk4LDAgNC4wNSwtMS45NyA0LjA1LC0zLjk0IDAsLTIuMDcgLTIuMDcsLTQuMDQgLTQuMDUsLTQuMDQgLTEuOTcsMCAtNC4wNCwxLjk3IC00LjA0LDQuMDQgMCwxLjk3IDIuMDcsMy45NCA0LjA0LDMuOTQgeiIgc3R5bGU9ImZpbGw6IzNlNTg2NSIgaW5rc2NhcGU6Y29ubmVjdG9yLWN1cnZhdHVyZT0iMCIgaWQ9InBhdGgxMTI2MjIiLz48cmVjdCB4PSItNjIuODA1OTMxIiBoZWlnaHQ9IjU3LjAyOTk5OSIgd2lkdGg9IjU3LjE1MDAwMiIgc3R5bGU9ImRpc3BsYXk6bm9uZTtmaWxsOiMyNjI2MjYiIHk9IjIuMjgzOTc5OSIgaWQ9InJlY3QxMTI2MjciLz48cGF0aCBkPSJtIDkuOTcsNTYuNiBjIDEwLjA3LC00LjA0IDEwLjA3LC00LjA0IDEwLjA3LC00LjA0IDMuNDgsMy41NyAzLjQ4LDMuNTcgMy40OCwzLjU3IDE1LjA1LDAgMTUuMDUsMCAxNS4wNSwwIDAsLTIxLjAyIDAsLTIxLjAyIDAsLTIxLjAyIDMuNTcsLTMuNTcgMy41NywtMy41NyAzLjU3LC0zLjU3IDkuNSwtNy45OCAxNC40OSwtMTguNDkgMTQuNDksLTI5LjQ3IDAsLTIuMDcgMCwtMi4wNyAwLC0yLjA3IC0xLjk4LDAgLTEuOTgsMCAtMS45OCwwIC0xMSwwIC0yMS41NCw1LjA3IC0yOS42MywxNC41NSAtMy40OCwzLjQ3IC0zLjQ4LDMuNDcgLTMuNDgsMy40NyAtMjEuMDcsMCAtMjEuMDcsMCAtMjEuMDcsMCAwLDE1LjAyIDAsMTUuMDIgMCwxNS4wMiAzLjQ4LDMuNTcgMy40OCwzLjU3IDMuNDgsMy41NyBDIDAsNDYuNTYgMCw0Ni41NiAwLDQ2LjU2IFogTSA0Ljk5LDQ1LjYyIGMgMS45NywtNi4wMSAxLjk3LC02LjAxIDEuOTcsLTYuMDEgMTAuMDcsOS45NSAxMC4wNyw5Ljk1IDEwLjA3LDkuOTUgLTYuMDIsMi4wNiAtNi4wMiwyLjA2IC02LjAyLDIuMDYgeiBtIDI5LjYzLDYuNDcgYyAtOS4wMywwIC05LjAzLDAgLTkuMDMsMCAtMi4wNywtMS45NyAtMi4wNywtMS45NyAtMi4wNywtMS45NyAxMS4xLC0xMS4wNyAxMS4xLC0xMS4wNyAxMS4xLC0xMS4wNyB6IE0gNDYuMDksMjEuMDMgQyAzNS41NiwxMC4wNSAzNS41NiwxMC4wNSAzNS41NiwxMC4wNSA0MC42NCw2LjU3IDQ2LjY2LDQuNTEgNTIuNjgsNC4wNCA1Mi4xMSwxMC4wNSA1MC4xNCwxNi4wNSA0Ni4wOSwyMS4wMyBaIE0gMjguMDMsMTcuNTUgYyAxLjUxLC0xLjk3IDMuMDEsLTMuNDcgNC41MiwtNC41IDExLjEsMTAuOTggMTEuMSwxMC45OCAxMS4xLDEwLjk4IC0xLjA0LDEuNSAtMi41NCwzIC00LjUyLDQuNTEgQyAyMC41MSw0Ny4xMiAyMC41MSw0Ny4xMiAyMC41MSw0Ny4xMiA5LjUsMzYuMDQgOS41LDM2LjA0IDkuNSwzNi4wNCBaIE0gNC41MiwyMi4wNiBjIDEyLjk4LDAgMTIuOTgsMCAxMi45OCwwIEMgNi40OSwzMy4wNCA2LjQ5LDMzLjA0IDYuNDksMzMuMDQgNC41MiwzMS4wNyA0LjUyLDMxLjA3IDQuNTIsMzEuMDcgWiIgc3R5bGU9ImZpbGw6IzNlNTg2NSIgaW5rc2NhcGU6Y29ubmVjdG9yLWN1cnZhdHVyZT0iMCIgaWQ9InBhdGgxMTI2MzQiLz4mI3hhOzwvc3ZnPg==;rotation=135;" vertex="1" parent="2">
          <mxGeometry x="72.07" y="495" width="80" height="80" as="geometry" />
        </mxCell>
        <mxCell id="cjwB_ALamql36mhWsSI0-52" value="" style="endArrow=classic;startArrow=classic;html=1;rounded=0;exitX=0.719;exitY=-0.017;exitDx=0;exitDy=0;exitPerimeter=0;" edge="1" parent="2" source="cjwB_ALamql36mhWsSI0-46">
          <mxGeometry width="50" height="50" relative="1" as="geometry">
            <mxPoint x="320" y="262" as="sourcePoint" />
            <mxPoint x="370" y="212" as="targetPoint" />
          </mxGeometry>
        </mxCell>
        <mxCell id="cjwB_ALamql36mhWsSI0-53" value="" style="endArrow=classic;startArrow=classic;html=1;rounded=0;exitX=0.749;exitY=0.486;exitDx=0;exitDy=0;exitPerimeter=0;" edge="1" parent="2" source="cjwB_ALamql36mhWsSI0-47">
          <mxGeometry width="50" height="50" relative="1" as="geometry">
            <mxPoint x="281" y="495" as="sourcePoint" />
            <mxPoint x="280" y="161" as="targetPoint" />
          </mxGeometry>
        </mxCell>
        <mxCell id="cjwB_ALamql36mhWsSI0-55" value="" style="endArrow=classic;startArrow=classic;html=1;rounded=0;exitX=-0.028;exitY=0.714;exitDx=0;exitDy=0;exitPerimeter=0;" edge="1" parent="2" source="cjwB_ALamql36mhWsSI0-46">
          <mxGeometry width="50" height="50" relative="1" as="geometry">
            <mxPoint x="112.50999999999999" y="924" as="sourcePoint" />
            <mxPoint x="111.50999999999999" y="590" as="targetPoint" />
          </mxGeometry>
        </mxCell>
        <mxCell id="cjwB_ALamql36mhWsSI0-56" value="" style="endArrow=classic;startArrow=classic;html=1;rounded=0;" edge="1" parent="2" source="cjwB_ALamql36mhWsSI0-48">
          <mxGeometry width="50" height="50" relative="1" as="geometry">
            <mxPoint x="205.3" y="754" as="sourcePoint" />
            <mxPoint x="204.3" y="420" as="targetPoint" />
          </mxGeometry>
        </mxCell>
        <mxCell id="cjwB_ALamql36mhWsSI0-57" value="Text" style="edgeLabel;html=1;align=center;verticalAlign=middle;resizable=0;points=[];" vertex="1" connectable="0" parent="cjwB_ALamql36mhWsSI0-56">
          <mxGeometry x="0.0319" y="-3" relative="1" as="geometry">
            <mxPoint as="offset" />
          </mxGeometry>
        </mxCell>
        <mxCell id="cjwB_ALamql36mhWsSI0-58" value="" style="endArrow=classic;startArrow=classic;html=1;rounded=0;" edge="1" parent="2" source="cjwB_ALamql36mhWsSI0-48">
          <mxGeometry width="50" height="50" relative="1" as="geometry">
            <mxPoint x="52.94" y="754" as="sourcePoint" />
            <mxPoint x="51.94" y="420" as="targetPoint" />
          </mxGeometry>
        </mxCell>
        <mxCell id="3" value="Log Calls" style="swimlane;whiteSpace=wrap" parent="1" vertex="1">
          <mxGeometry x="502.39" y="30" width="877.61" height="790" as="geometry" />
        </mxCell>
        <mxCell id="32" value="" style="endArrow=none;strokeColor=#FF0000;endFill=0;rounded=0;dashed=1" parent="3" source="18" edge="1">
          <mxGeometry relative="1" as="geometry">
            <mxPoint x="142.87878787878742" y="490" as="targetPoint" />
          </mxGeometry>
        </mxCell>
        <mxCell id="cjwB_ALamql36mhWsSI0-59" value="&lt;span style=&quot;font-size: 18px;&quot;&gt;Login&lt;/span&gt;" style="rounded=1;whiteSpace=wrap;html=1;" vertex="1" parent="3">
          <mxGeometry x="57.610000000000014" y="70" width="120" height="60" as="geometry" />
        </mxCell>
        <mxCell id="cjwB_ALamql36mhWsSI0-61" value="&lt;font style=&quot;font-size: 18px;&quot;&gt;Role&lt;/font&gt;" style="rhombus;whiteSpace=wrap;html=1;" vertex="1" parent="3">
          <mxGeometry x="180" y="210" width="117.61" height="110" as="geometry" />
        </mxCell>
        <mxCell id="cjwB_ALamql36mhWsSI0-60" value="" style="endArrow=none;html=1;rounded=0;entryX=1;entryY=0.5;entryDx=0;entryDy=0;exitX=0.5;exitY=0;exitDx=0;exitDy=0;" edge="1" parent="3" source="cjwB_ALamql36mhWsSI0-61" target="cjwB_ALamql36mhWsSI0-59">
          <mxGeometry width="50" height="50" relative="1" as="geometry">
            <mxPoint x="117.61000000000001" y="330" as="sourcePoint" />
            <mxPoint x="107.61000000000001" y="360" as="targetPoint" />
            <Array as="points">
              <mxPoint x="237.61" y="100" />
            </Array>
          </mxGeometry>
        </mxCell>
        <mxCell id="cjwB_ALamql36mhWsSI0-62" value="&lt;font style=&quot;font-size: 18px;&quot;&gt;Agent&lt;/font&gt;" style="rounded=1;whiteSpace=wrap;html=1;arcSize=16;" vertex="1" parent="3">
          <mxGeometry x="27.61" y="365" width="112.39" height="60" as="geometry" />
        </mxCell>
        <mxCell id="cjwB_ALamql36mhWsSI0-63" value="&lt;font style=&quot;font-size: 18px;&quot;&gt;Admin&lt;/font&gt;" style="rounded=1;whiteSpace=wrap;html=1;" vertex="1" parent="3">
          <mxGeometry x="324.61" y="70" width="120" height="60" as="geometry" />
        </mxCell>
        <mxCell id="cjwB_ALamql36mhWsSI0-70" value="" style="endArrow=none;html=1;rounded=0;entryX=0.5;entryY=1;entryDx=0;entryDy=0;exitX=1;exitY=0.5;exitDx=0;exitDy=0;" edge="1" parent="3" source="cjwB_ALamql36mhWsSI0-62" target="cjwB_ALamql36mhWsSI0-61">
          <mxGeometry width="50" height="50" relative="1" as="geometry">
            <mxPoint x="57.610000000000014" y="400" as="sourcePoint" />
            <mxPoint x="107.61000000000001" y="350" as="targetPoint" />
            <Array as="points">
              <mxPoint x="238.61" y="395" />
            </Array>
          </mxGeometry>
        </mxCell>
        <mxCell id="cjwB_ALamql36mhWsSI0-72" value="" style="endArrow=none;html=1;rounded=0;entryX=0.5;entryY=1;entryDx=0;entryDy=0;exitX=1;exitY=0.5;exitDx=0;exitDy=0;" edge="1" parent="3" source="cjwB_ALamql36mhWsSI0-61" target="cjwB_ALamql36mhWsSI0-63">
          <mxGeometry width="50" height="50" relative="1" as="geometry">
            <mxPoint x="57.610000000000014" y="400" as="sourcePoint" />
            <mxPoint x="107.61000000000001" y="350" as="targetPoint" />
            <Array as="points">
              <mxPoint x="384.61" y="265" />
            </Array>
          </mxGeometry>
        </mxCell>
        <mxCell id="cjwB_ALamql36mhWsSI0-75" value="" style="endArrow=none;html=1;rounded=0;exitX=0;exitY=0.5;exitDx=0;exitDy=0;" edge="1" parent="3">
          <mxGeometry width="50" height="50" relative="1" as="geometry">
            <mxPoint x="427.61000000000047" y="450" as="sourcePoint" />
            <mxPoint x="87.61000000000001" y="430" as="targetPoint" />
            <Array as="points">
              <mxPoint x="87.61000000000001" y="450" />
            </Array>
          </mxGeometry>
        </mxCell>
        <mxCell id="cjwB_ALamql36mhWsSI0-79" value="&lt;font style=&quot;font-size: 18px;&quot;&gt;Agent - Creation&lt;/font&gt;" style="rounded=1;whiteSpace=wrap;html=1;" vertex="1" parent="3">
          <mxGeometry x="527.61" y="70" width="120" height="60" as="geometry" />
        </mxCell>
        <mxCell id="cjwB_ALamql36mhWsSI0-80" value="&lt;font style=&quot;font-size: 18px;&quot;&gt;Report Management&lt;/font&gt;" style="rounded=1;whiteSpace=wrap;html=1;" vertex="1" parent="3">
          <mxGeometry x="487.61" y="230" width="120" height="60" as="geometry" />
        </mxCell>
        <mxCell id="cjwB_ALamql36mhWsSI0-84" value="" style="endArrow=none;html=1;rounded=0;exitX=0;exitY=0.5;exitDx=0;exitDy=0;entryX=0.694;entryY=1.098;entryDx=0;entryDy=0;entryPerimeter=0;" edge="1" parent="3" source="cjwB_ALamql36mhWsSI0-80" target="cjwB_ALamql36mhWsSI0-63">
          <mxGeometry width="50" height="50" relative="1" as="geometry">
            <mxPoint x="357.61" y="230" as="sourcePoint" />
            <mxPoint x="407.61" y="180" as="targetPoint" />
            <Array as="points">
              <mxPoint x="407.61" y="260" />
            </Array>
          </mxGeometry>
        </mxCell>
        <mxCell id="cjwB_ALamql36mhWsSI0-87" value="&lt;font style=&quot;font-size: 18px;&quot;&gt;Client/User&lt;/font&gt;" style="rounded=1;whiteSpace=wrap;html=1;" vertex="1" parent="3">
          <mxGeometry x="27.610000000000014" y="640" width="120" height="60" as="geometry" />
        </mxCell>
        <mxCell id="cjwB_ALamql36mhWsSI0-90" value="&lt;font style=&quot;font-size: 18px;&quot;&gt;Log Call&lt;/font&gt;" style="rounded=1;whiteSpace=wrap;html=1;" vertex="1" parent="3">
          <mxGeometry x="317.61" y="580" width="120" height="60" as="geometry" />
        </mxCell>
        <mxCell id="cjwB_ALamql36mhWsSI0-92" value="" style="endArrow=classic;html=1;rounded=0;entryX=0.5;entryY=1;entryDx=0;entryDy=0;" edge="1" parent="3" target="cjwB_ALamql36mhWsSI0-90">
          <mxGeometry width="50" height="50" relative="1" as="geometry">
            <mxPoint x="147.61" y="680" as="sourcePoint" />
            <mxPoint x="367.61" y="680" as="targetPoint" />
            <Array as="points">
              <mxPoint x="377.61" y="680" />
            </Array>
          </mxGeometry>
        </mxCell>
        <mxCell id="cjwB_ALamql36mhWsSI0-94" value="" style="endArrow=classic;html=1;rounded=0;exitX=1;exitY=0.5;exitDx=0;exitDy=0;" edge="1" parent="3" source="cjwB_ALamql36mhWsSI0-90">
          <mxGeometry width="50" height="50" relative="1" as="geometry">
            <mxPoint x="437.61" y="530" as="sourcePoint" />
            <mxPoint x="487.61" y="480" as="targetPoint" />
            <Array as="points">
              <mxPoint x="487.61" y="610" />
            </Array>
          </mxGeometry>
        </mxCell>
        <mxCell id="cjwB_ALamql36mhWsSI0-95" value="&lt;font style=&quot;font-size: 18px;&quot;&gt;Email Track&lt;/font&gt;" style="rounded=1;whiteSpace=wrap;html=1;" vertex="1" parent="3">
          <mxGeometry x="137.61" y="515" width="120" height="60" as="geometry" />
        </mxCell>
        <mxCell id="cjwB_ALamql36mhWsSI0-96" value="" style="endArrow=classic;startArrow=classic;html=1;rounded=0;entryX=0;entryY=0.75;entryDx=0;entryDy=0;" edge="1" parent="3">
          <mxGeometry width="50" height="50" relative="1" as="geometry">
            <mxPoint x="257.61" y="550" as="sourcePoint" />
            <mxPoint x="427.61000000000047" y="465" as="targetPoint" />
            <Array as="points">
              <mxPoint x="427.61" y="550" />
            </Array>
          </mxGeometry>
        </mxCell>
        <mxCell id="cjwB_ALamql36mhWsSI0-97" value="" style="endArrow=classic;startArrow=classic;html=1;rounded=0;exitX=0.327;exitY=0.024;exitDx=0;exitDy=0;exitPerimeter=0;" edge="1" parent="3" source="cjwB_ALamql36mhWsSI0-87">
          <mxGeometry width="50" height="50" relative="1" as="geometry">
            <mxPoint x="87.61000000000001" y="590" as="sourcePoint" />
            <mxPoint x="137.61" y="540" as="targetPoint" />
            <Array as="points">
              <mxPoint x="67.61000000000001" y="540" />
            </Array>
          </mxGeometry>
        </mxCell>
        <mxCell id="cjwB_ALamql36mhWsSI0-98" value="&lt;font style=&quot;font-size: 18px;&quot;&gt;Users&lt;/font&gt;" style="shape=cylinder3;whiteSpace=wrap;html=1;boundedLbl=1;backgroundOutline=1;size=15;" vertex="1" parent="3">
          <mxGeometry x="710" y="50" width="140" height="120" as="geometry" />
        </mxCell>
        <mxCell id="cjwB_ALamql36mhWsSI0-100" value="" style="endArrow=none;html=1;rounded=0;" edge="1" parent="3">
          <mxGeometry width="50" height="50" relative="1" as="geometry">
            <mxPoint x="444.61" y="110" as="sourcePoint" />
            <mxPoint x="527.61" y="110" as="targetPoint" />
          </mxGeometry>
        </mxCell>
        <mxCell id="cjwB_ALamql36mhWsSI0-101" value="" style="endArrow=none;html=1;rounded=0;" edge="1" parent="3">
          <mxGeometry width="50" height="50" relative="1" as="geometry">
            <mxPoint x="647.61" y="110" as="sourcePoint" />
            <mxPoint x="707.61" y="110" as="targetPoint" />
          </mxGeometry>
        </mxCell>
        <mxCell id="cjwB_ALamql36mhWsSI0-104" value="" style="endArrow=none;html=1;rounded=0;exitX=1;exitY=0;exitDx=0;exitDy=67.5;exitPerimeter=0;" edge="1" parent="3" source="cjwB_ALamql36mhWsSI0-99">
          <mxGeometry width="50" height="50" relative="1" as="geometry">
            <mxPoint x="557.61" y="460" as="sourcePoint" />
            <mxPoint x="557.61" y="290" as="targetPoint" />
            <Array as="points">
              <mxPoint x="557.61" y="448" />
              <mxPoint x="557.61" y="313" />
            </Array>
          </mxGeometry>
        </mxCell>
        <mxCell id="cjwB_ALamql36mhWsSI0-99" value="Support Ticket" style="shape=cylinder3;whiteSpace=wrap;html=1;boundedLbl=1;backgroundOutline=1;size=15;" vertex="1" parent="3">
          <mxGeometry x="407.61" y="380" width="102.39" height="100" as="geometry" />
        </mxCell>
        <mxCell id="cjwB_ALamql36mhWsSI0-105" value="" style="endArrow=classic;html=1;rounded=0;" edge="1" parent="3" target="cjwB_ALamql36mhWsSI0-98">
          <mxGeometry width="50" height="50" relative="1" as="geometry">
            <mxPoint x="437.61" y="620" as="sourcePoint" />
            <mxPoint x="788.61" y="360" as="targetPoint" />
            <Array as="points">
              <mxPoint x="787.61" y="620" />
            </Array>
          </mxGeometry>
        </mxCell>
        <mxCell id="cjwB_ALamql36mhWsSI0-106" value="Text" style="edgeLabel;html=1;align=center;verticalAlign=middle;resizable=0;points=[];" vertex="1" connectable="0" parent="cjwB_ALamql36mhWsSI0-105">
          <mxGeometry x="0.1556" y="-4" relative="1" as="geometry">
            <mxPoint as="offset" />
          </mxGeometry>
        </mxCell>
      </root>
    </mxGraphModel>
  </diagram>
</mxfile>
